<svg xmlns="http://www.w3.org/2000/svg" width="1117.452" height="1012.648" viewBox="0 0 1117.452 1012.648">
  <g id="Layer_4" data-name="Layer 4" transform="translate(-704.227 -40.193)">
    <g id="Group_1" data-name="Group 1" style="mix-blend-mode: overlay;isolation: isolate">
      <path id="Path_2" data-name="Path 2" d="M1705.987,785.027a6.685,6.685,0,0,1-4.04-12.014l109.014-82.539a6.684,6.684,0,0,1,8.069,10.658l-109.014,82.54A6.656,6.656,0,0,1,1705.987,785.027Z" fill="#fff"/>
      <path id="Path_3" data-name="Path 3" d="M893.349,980.344a41.724,41.724,0,1,1,41.723-41.723A41.771,41.771,0,0,1,893.349,980.344Zm0-70.08a28.357,28.357,0,1,0,28.356,28.357A28.389,28.389,0,0,0,893.349,910.264Z" fill="#fff"/>
      <path id="Path_4" data-name="Path 4" d="M987.34,818.928a55.367,55.367,0,1,1,55.367-55.368A55.43,55.43,0,0,1,987.34,818.928Zm0-97.368a42,42,0,1,0,42,42A42.047,42.047,0,0,0,987.34,721.56Z" fill="#fff"/>
      <path id="Path_5" data-name="Path 5" d="M1557.34,150.928a55.367,55.367,0,1,1,55.367-55.368A55.431,55.431,0,0,1,1557.34,150.928Zm0-97.368a42,42,0,1,0,42,42A42.047,42.047,0,0,0,1557.34,53.56Z" fill="#fff"/>
      <path id="Path_6" data-name="Path 6" d="M759.135,290.222a6.685,6.685,0,0,1-6.59-5.568l-12.618-74.469a6.683,6.683,0,0,1,5.473-7.707l74.469-12.619a6.68,6.68,0,0,1,7.706,5.474L840.194,269.8a6.682,6.682,0,0,1-5.473,7.706l-74.469,12.62A6.682,6.682,0,0,1,759.135,290.222Zm-4.912-75.681,10.385,61.29,61.29-10.386-10.386-61.289Z" fill="#fff"/>
      <path id="Path_7" data-name="Path 7" d="M1496.989,835.342a6.685,6.685,0,0,1-6.582-5.568l-12.619-74.47a6.684,6.684,0,0,1,5.474-7.706l74.47-12.619a6.687,6.687,0,0,1,7.706,5.474l12.619,74.469a6.685,6.685,0,0,1-5.474,7.707l-74.469,12.619A6.714,6.714,0,0,1,1496.989,835.342Zm-4.9-75.68,10.386,61.289,61.289-10.386-10.386-61.289Z" fill="#fff"/>
      <path id="Path_8" data-name="Path 8" d="M765.42,729.068a6.684,6.684,0,0,1-6.119-3.989L704.8,601.438a6.684,6.684,0,1,1,12.232-5.392l54.5,123.64a6.686,6.686,0,0,1-6.112,9.382Z" fill="#fff"/>
      <rect id="Rectangle_2" data-name="Rectangle 2" width="21.024" height="21.024" transform="translate(1416.871 889.491)" fill="#fff"/>
      <rect id="Rectangle_3" data-name="Rectangle 3" width="21.024" height="21.024" transform="translate(1472.671 470.508)" fill="#fff"/>
      <rect id="Rectangle_4" data-name="Rectangle 4" width="15.573" height="15.573" transform="translate(783.327 507.943)" fill="#fff"/>
      <rect id="Rectangle_5" data-name="Rectangle 5" width="15.573" height="15.573" transform="translate(951.451 338.716)" fill="#fff"/>
      <circle id="Ellipse_1" data-name="Ellipse 1" cx="20.245" cy="20.245" r="20.245" transform="translate(712.282 820.497) rotate(-76.834)" fill="#fff"/>
      <circle id="Ellipse_2" data-name="Ellipse 2" cx="20.245" cy="20.245" r="20.245" transform="translate(869.282 139.497) rotate(-76.834)" fill="#fff"/>
      <circle id="Ellipse_3" data-name="Ellipse 3" cx="20.245" cy="20.245" r="20.245" transform="translate(1587.701 869.535)" fill="#fff"/>
      <circle id="Ellipse_4" data-name="Ellipse 4" cx="13.644" cy="13.644" r="13.644" transform="translate(1709.55 227.352)" fill="#fff"/>
      <path id="Path_9" data-name="Path 9" d="M812.92,442.089a6.684,6.684,0,0,1-4.288-11.814l71.638-59.836a6.684,6.684,0,0,1,8.569,10.26L817.2,440.535A6.658,6.658,0,0,1,812.92,442.089Z" fill="#fff"/>
      <path id="Path_10" data-name="Path 10" d="M1541.572,608.281a6.686,6.686,0,0,1-5.825-9.952l88.674-158.223a6.684,6.684,0,0,1,11.662,6.535l-88.674,158.223A6.683,6.683,0,0,1,1541.572,608.281Z" fill="#fff"/>
      <path id="Path_11" data-name="Path 11" d="M1484.8,305.925a6.684,6.684,0,0,1-6.087-9.442l27.4-60.463a6.683,6.683,0,0,1,11.2-1.55l45.207,53.613a6.684,6.684,0,0,1-4.482,10.963l-72.6,6.85C1485.217,305.916,1485.007,305.925,1484.8,305.925Zm29.116-54.742-18.271,40.322,48.419-4.568Z" fill="#fff"/>
      <path id="Path_12" data-name="Path 12" d="M1514.565,1013.293l-13.863,32.889a4.8,4.8,0,0,0,4.849,6.639l32.608-2.929a4.8,4.8,0,0,0,3.637-7.32l-18.746-29.961A4.8,4.8,0,0,0,1514.565,1013.293Z" fill="#fff"/>
      <rect id="Rectangle_6" data-name="Rectangle 6" width="82.571" height="13.368" transform="translate(935.369 198.176) rotate(-26.623)" fill="#fff"/>
      <path id="Path_13" data-name="Path 13" d="M1430.961,181.531a6.681,6.681,0,0,1-5.876-3.49l-43.2-79.371a6.683,6.683,0,1,1,11.74-6.391l43.2,79.372a6.685,6.685,0,0,1-5.864,9.88Z" fill="#fff"/>
    </g>
  </g>
</svg>
