<svg xmlns="http://www.w3.org/2000/svg" width="477.021" height="336.584" viewBox="0 0 477.021 336.584">
  <g id="Layer_6" data-name="Layer 6" transform="translate(-153.143 -125.173)">
    <g id="Group_27" data-name="Group 27">
      <path id="Path_40" data-name="Path 40" d="M486.155,293.261a3.568,3.568,0,0,0-2.674,3.292,2.059,2.059,0,0,0,2.674,2.056,3.567,3.567,0,0,0,2.674-3.291A2.059,2.059,0,0,0,486.155,293.261Zm0-30.559a3.568,3.568,0,0,0-2.674,3.292,2.059,2.059,0,0,0,2.674,2.056,3.567,3.567,0,0,0,2.674-3.291A2.059,2.059,0,0,0,486.155,262.7Zm0,15.28a3.567,3.567,0,0,0-2.674,3.291,2.059,2.059,0,0,0,2.674,2.057,3.568,3.568,0,0,0,2.674-3.292A2.059,2.059,0,0,0,486.155,277.982Zm0,30.559a3.567,3.567,0,0,0-2.674,3.291,2.059,2.059,0,0,0,2.674,2.057,3.568,3.568,0,0,0,2.674-3.292A2.059,2.059,0,0,0,486.155,308.541Zm0,15.279a3.568,3.568,0,0,0-2.674,3.291,2.059,2.059,0,0,0,2.674,2.057,3.567,3.567,0,0,0,2.674-3.291A2.059,2.059,0,0,0,486.155,323.82Zm0-122.235a3.566,3.566,0,0,0-2.674,3.291,2.059,2.059,0,0,0,2.674,2.056,3.566,3.566,0,0,0,2.674-3.291A2.059,2.059,0,0,0,486.155,201.585Zm0,15.279a3.567,3.567,0,0,0-2.674,3.291,2.059,2.059,0,0,0,2.674,2.057,3.568,3.568,0,0,0,2.674-3.291A2.059,2.059,0,0,0,486.155,216.864Zm0,15.28a3.567,3.567,0,0,0-2.674,3.291,2.059,2.059,0,0,0,2.674,2.056,3.567,3.567,0,0,0,2.674-3.291A2.059,2.059,0,0,0,486.155,232.144Zm0,15.279a3.567,3.567,0,0,0-2.674,3.291,2.059,2.059,0,0,0,2.674,2.057,3.568,3.568,0,0,0,2.674-3.291A2.059,2.059,0,0,0,486.155,247.423Zm-11.078-58.179a3.058,3.058,0,0,0-2.291,2.822,1.763,1.763,0,0,0,2.291,1.762,3.057,3.057,0,0,0,2.292-2.821A1.765,1.765,0,0,0,475.077,189.244Zm11.078,195.694a3.568,3.568,0,0,0-2.674,3.291,2.059,2.059,0,0,0,2.674,2.057,3.568,3.568,0,0,0,2.674-3.291A2.059,2.059,0,0,0,486.155,384.938ZM475.077,173.965a3.055,3.055,0,0,0-2.291,2.821,1.764,1.764,0,0,0,2.291,1.763,3.058,3.058,0,0,0,2.292-2.821A1.765,1.765,0,0,0,475.077,173.965ZM486.155,339.1a3.567,3.567,0,0,0-2.674,3.291,2.059,2.059,0,0,0,2.674,2.056,3.567,3.567,0,0,0,2.674-3.291A2.059,2.059,0,0,0,486.155,339.1ZM475.077,204.524a3.055,3.055,0,0,0-2.291,2.821,1.764,1.764,0,0,0,2.291,1.763,3.057,3.057,0,0,0,2.292-2.821A1.765,1.765,0,0,0,475.077,204.524Zm0-41.255a3.057,3.057,0,0,0,2.292-2.821l-4.584,1.059A1.765,1.765,0,0,0,475.077,163.269Zm11.078,191.11a3.568,3.568,0,0,0-2.674,3.291,2.059,2.059,0,0,0,2.674,2.057,3.567,3.567,0,0,0,2.674-3.291A2.059,2.059,0,0,0,486.155,354.379Zm0,15.279a3.568,3.568,0,0,0-2.674,3.292,2.059,2.059,0,0,0,2.674,2.056,3.567,3.567,0,0,0,2.674-3.291A2.06,2.06,0,0,0,486.155,369.658Zm0-183.353a3.568,3.568,0,0,0-2.674,3.291,2.059,2.059,0,0,0,2.674,2.057,3.567,3.567,0,0,0,2.674-3.291A2.059,2.059,0,0,0,486.155,186.3Zm11.077,180.414a4.078,4.078,0,0,0-3.055,3.761,2.353,2.353,0,0,0,3.055,2.351,4.077,4.077,0,0,0,3.056-3.761A2.354,2.354,0,0,0,497.232,366.719ZM486.155,171.026a3.567,3.567,0,0,0-2.674,3.291,2.059,2.059,0,0,0,2.674,2.056,3.567,3.567,0,0,0,2.674-3.291A2.059,2.059,0,0,0,486.155,171.026Zm11.077,27.619a4.077,4.077,0,0,0-3.055,3.762,2.353,2.353,0,0,0,3.056,2.35A4.076,4.076,0,0,0,500.288,201,2.353,2.353,0,0,0,497.232,198.645Zm0,15.28a4.076,4.076,0,0,0-3.055,3.761,2.353,2.353,0,0,0,3.055,2.35,4.079,4.079,0,0,0,3.057-3.761A2.354,2.354,0,0,0,497.232,213.925Zm0,30.559a4.076,4.076,0,0,0-3.055,3.761,2.353,2.353,0,0,0,3.055,2.35,4.075,4.075,0,0,0,3.056-3.761A2.353,2.353,0,0,0,497.232,244.484Zm0-76.4a4.077,4.077,0,0,0-3.055,3.762,2.353,2.353,0,0,0,3.055,2.35,4.078,4.078,0,0,0,3.056-3.762A2.353,2.353,0,0,0,497.232,168.086ZM508.31,394.339a4.662,4.662,0,0,0-3.275,3.15,52.7,52.7,0,0,0,6.706-.643A2.639,2.639,0,0,0,508.31,394.339ZM497.232,183.365a4.078,4.078,0,0,0-3.055,3.762,2.352,2.352,0,0,0,3.055,2.35,4.075,4.075,0,0,0,3.056-3.761A2.354,2.354,0,0,0,497.232,183.365Zm0-24.447a4.075,4.075,0,0,0,3.056-3.761l-6.111,1.411A2.352,2.352,0,0,0,497.232,158.918Zm0,100.845a4.077,4.077,0,0,0-3.055,3.761,2.353,2.353,0,0,0,3.055,2.351,4.078,4.078,0,0,0,3.056-3.762A2.353,2.353,0,0,0,497.232,259.763Zm0-30.559a4.078,4.078,0,0,0-3.055,3.761,2.353,2.353,0,0,0,3.055,2.351,4.078,4.078,0,0,0,3.056-3.762A2.353,2.353,0,0,0,497.232,229.2Zm0,122.236a4.076,4.076,0,0,0-3.055,3.761,2.352,2.352,0,0,0,3.055,2.35,4.075,4.075,0,0,0,3.056-3.761A2.353,2.353,0,0,0,497.232,351.44Zm0,30.559a4.076,4.076,0,0,0-3.055,3.761,2.352,2.352,0,0,0,3.055,2.35,4.078,4.078,0,0,0,3.057-3.761A2.354,2.354,0,0,0,497.232,382ZM475.077,219.8a3.059,3.059,0,0,0-2.292,2.821,1.765,1.765,0,0,0,2.292,1.763,3.057,3.057,0,0,0,2.292-2.821A1.765,1.765,0,0,0,475.077,219.8Zm11.078-58.709a3.568,3.568,0,0,0,2.674-3.291l-5.348,1.234A2.059,2.059,0,0,0,486.155,161.094Zm11.077,159.787a4.078,4.078,0,0,0-3.055,3.761,2.353,2.353,0,0,0,3.055,2.351,4.08,4.08,0,0,0,3.057-3.762A2.354,2.354,0,0,0,497.232,320.881Zm0-30.559a4.077,4.077,0,0,0-3.055,3.761,2.353,2.353,0,0,0,3.055,2.351,4.078,4.078,0,0,0,3.056-3.762A2.353,2.353,0,0,0,497.232,290.322Zm0,15.279a4.078,4.078,0,0,0-3.055,3.762,2.353,2.353,0,0,0,3.055,2.35,4.077,4.077,0,0,0,3.056-3.761A2.354,2.354,0,0,0,497.232,305.6Zm0,30.559a4.078,4.078,0,0,0-3.055,3.762,2.353,2.353,0,0,0,3.055,2.35,4.077,4.077,0,0,0,3.056-3.761A2.354,2.354,0,0,0,497.232,336.16Zm0-61.118a4.078,4.078,0,0,0-3.055,3.762,2.353,2.353,0,0,0,3.055,2.35,4.08,4.08,0,0,0,3.057-3.761A2.355,2.355,0,0,0,497.232,275.042Zm33.233-46.253c.129-.029.256-.067.382-.107v-8.365c-.127.017-.254.039-.383.069a5.606,5.606,0,0,0-4.2,5.171A3.236,3.236,0,0,0,530.465,228.789Zm0,91.677c.129-.03.256-.067.382-.108v-8.364c-.126.017-.253.039-.382.069a5.6,5.6,0,0,0-4.2,5.171A3.235,3.235,0,0,0,530.465,320.466Zm0,15.279c.129-.029.256-.067.382-.107v-8.365c-.126.018-.253.039-.382.069a5.608,5.608,0,0,0-4.2,5.172A3.236,3.236,0,0,0,530.465,335.745ZM464,360.258a2.539,2.539,0,0,0-1.516,1.109q.165,1.318.4,2.6a1.653,1.653,0,0,0,1.119.11,2.549,2.549,0,0,0,1.909-2.351A1.47,1.47,0,0,0,464,360.258Zm66.465-55.071c.129-.03.256-.067.382-.108v-8.365c-.126.018-.253.039-.382.069a5.607,5.607,0,0,0-4.2,5.172A3.236,3.236,0,0,0,530.465,305.187ZM464,299.14a2.548,2.548,0,0,0-1.91,2.351A1.471,1.471,0,0,0,464,302.96a2.548,2.548,0,0,0,1.909-2.351A1.47,1.47,0,0,0,464,299.14Zm66.466-9.233c.128-.03.255-.067.381-.107v-8.365c-.126.017-.253.039-.382.069a5.606,5.606,0,0,0-4.2,5.171A3.236,3.236,0,0,0,530.466,289.907ZM464,314.419a2.55,2.55,0,0,0-1.91,2.352A1.471,1.471,0,0,0,464,318.24a2.549,2.549,0,0,0,1.909-2.351A1.471,1.471,0,0,0,464,314.419Zm0,30.56a2.547,2.547,0,0,0-1.91,2.351A1.47,1.47,0,0,0,464,348.8a2.547,2.547,0,0,0,1.909-2.35A1.47,1.47,0,0,0,464,344.979Zm0-15.28a2.548,2.548,0,0,0-1.91,2.351,1.471,1.471,0,0,0,1.91,1.469,2.55,2.55,0,0,0,1.91-2.351A1.471,1.471,0,0,0,464,329.7Zm0-45.838a2.548,2.548,0,0,0-1.91,2.351,1.471,1.471,0,0,0,1.91,1.469,2.55,2.55,0,0,0,1.91-2.351A1.471,1.471,0,0,0,464,283.861Zm66.465-85.631c.129-.029.256-.066.382-.107v-8.365c-.126.018-.253.039-.382.069a5.606,5.606,0,0,0-4.2,5.172A3.236,3.236,0,0,0,530.465,198.23Zm0-30.558c.129-.03.256-.068.382-.108V159.2c-.126.018-.253.039-.382.069a5.606,5.606,0,0,0-4.2,5.172A3.237,3.237,0,0,0,530.465,167.672Zm0,15.279c.128-.03.255-.067.381-.108v-8.365c-.126.018-.253.039-.382.069a5.608,5.608,0,0,0-4.2,5.172A3.236,3.236,0,0,0,530.466,182.951Zm0-30.559c.129-.03.256-.067.383-.107V148.1l-4.584,1.058A3.236,3.236,0,0,0,530.465,152.392Zm0,91.677c.129-.03.256-.067.382-.108V235.6c-.126.018-.253.039-.382.069a5.608,5.608,0,0,0-4.2,5.172A3.236,3.236,0,0,0,530.465,244.069Zm0,30.559c.129-.03.256-.067.382-.108v-8.365c-.127.018-.254.039-.383.069a5.608,5.608,0,0,0-4.2,5.172A3.236,3.236,0,0,0,530.465,274.628Zm0-15.28c.129-.03.256-.067.382-.107v-8.365c-.126.018-.253.039-.382.069a5.6,5.6,0,0,0-4.2,5.171A3.235,3.235,0,0,0,530.465,259.348ZM508.31,379.059a4.587,4.587,0,0,0-3.438,4.232,2.648,2.648,0,0,0,3.438,2.644,4.586,4.586,0,0,0,3.438-4.232A2.648,2.648,0,0,0,508.31,379.059ZM530.465,213.51c.129-.03.256-.067.383-.108v-8.365c-.126.018-.253.039-.382.069a5.607,5.607,0,0,0-4.2,5.172A3.236,3.236,0,0,0,530.465,213.51ZM464,222.743a2.548,2.548,0,0,0-1.91,2.351,1.471,1.471,0,0,0,1.91,1.469,2.55,2.55,0,0,0,1.91-2.351A1.471,1.471,0,0,0,464,222.743ZM475.077,326.76a3.055,3.055,0,0,0-2.291,2.821,1.765,1.765,0,0,0,2.291,1.763,3.059,3.059,0,0,0,2.292-2.821A1.765,1.765,0,0,0,475.077,326.76Zm0,15.279a3.057,3.057,0,0,0-2.291,2.821,1.764,1.764,0,0,0,2.291,1.763,3.057,3.057,0,0,0,2.292-2.821A1.765,1.765,0,0,0,475.077,342.039Zm0-30.559a3.059,3.059,0,0,0-2.292,2.821,1.765,1.765,0,0,0,2.292,1.763,3.057,3.057,0,0,0,2.292-2.821A1.765,1.765,0,0,0,475.077,311.48Zm0,45.839a3.058,3.058,0,0,0-2.292,2.821,1.765,1.765,0,0,0,2.292,1.763,3.059,3.059,0,0,0,2.292-2.822A1.764,1.764,0,0,0,475.077,357.319Zm0-76.4a3.056,3.056,0,0,0-2.291,2.821,1.764,1.764,0,0,0,2.291,1.763,3.057,3.057,0,0,0,2.292-2.821A1.765,1.765,0,0,0,475.077,280.921Zm0-30.559a3.057,3.057,0,0,0-2.291,2.821,1.764,1.764,0,0,0,2.291,1.763,3.057,3.057,0,0,0,2.292-2.821A1.765,1.765,0,0,0,475.077,250.362Zm0,45.839a3.056,3.056,0,0,0-2.291,2.821,1.764,1.764,0,0,0,2.291,1.763,3.059,3.059,0,0,0,2.292-2.822A1.765,1.765,0,0,0,475.077,296.2Zm0-30.559a3.057,3.057,0,0,0-2.292,2.821,1.765,1.765,0,0,0,2.292,1.763,3.059,3.059,0,0,0,2.292-2.821A1.765,1.765,0,0,0,475.077,265.642Zm0,106.956a3.057,3.057,0,0,0-2.292,2.821,1.765,1.765,0,0,0,2.292,1.763,3.057,3.057,0,0,0,2.292-2.821A1.765,1.765,0,0,0,475.077,372.6ZM464,207.463a2.549,2.549,0,0,0-1.91,2.351,1.47,1.47,0,0,0,1.91,1.469,2.548,2.548,0,0,0,1.909-2.35A1.471,1.471,0,0,0,464,207.463Zm0,30.559a2.548,2.548,0,0,0-1.91,2.351,1.47,1.47,0,0,0,1.91,1.469,2.548,2.548,0,0,0,1.909-2.351A1.471,1.471,0,0,0,464,238.022Zm12.3,149.929q.39.332.789.655A1.639,1.639,0,0,0,476.3,387.951Zm-1.222-152.868a3.056,3.056,0,0,0-2.291,2.821,1.764,1.764,0,0,0,2.291,1.763,3.058,3.058,0,0,0,2.292-2.821A1.765,1.765,0,0,0,475.077,235.083ZM464,253.3a2.548,2.548,0,0,0-1.91,2.351,1.471,1.471,0,0,0,1.91,1.469,2.548,2.548,0,0,0,1.909-2.351A1.47,1.47,0,0,0,464,253.3Zm0,15.279a2.549,2.549,0,0,0-1.91,2.351A1.471,1.471,0,0,0,464,272.4a2.551,2.551,0,0,0,1.91-2.351A1.471,1.471,0,0,0,464,268.581Zm0-76.4a2.548,2.548,0,0,0-1.91,2.351A1.471,1.471,0,0,0,464,196a2.549,2.549,0,0,0,1.909-2.351A1.47,1.47,0,0,0,464,192.184Zm0-26.739a2.548,2.548,0,0,0,1.909-2.351l-3.819.882A1.471,1.471,0,0,0,464,165.445Zm0,11.46a2.547,2.547,0,0,0-1.91,2.35,1.47,1.47,0,0,0,1.91,1.469,2.549,2.549,0,0,0,1.91-2.35A1.471,1.471,0,0,0,464,176.9Zm99.7,187.457a7.136,7.136,0,0,0-5.348,6.582,4.119,4.119,0,0,0,5.348,4.114,7.135,7.135,0,0,0,5.348-6.583A4.118,4.118,0,0,0,563.7,364.362Zm0-30.559a6.764,6.764,0,0,0-3.015,1.628,10.564,10.564,0,0,1-2.023,3.1,5.971,5.971,0,0,0-.31,1.852A4.119,4.119,0,0,0,563.7,344.5a7.136,7.136,0,0,0,5.348-6.583A4.118,4.118,0,0,0,563.7,333.8ZM624.367,304.9a5.988,5.988,0,0,0-5.281-1.071,9.663,9.663,0,0,0-5.777,4.212,5.6,5.6,0,0,0-5.3-1.272,9.23,9.23,0,0,0-5.77,4.474,5.2,5.2,0,0,0-5.308-1.535,8.775,8.775,0,0,0-5.756,4.823,4.811,4.811,0,0,0-5.321-1.883,8.284,8.284,0,0,0-5.743,5.36,4.432,4.432,0,0,0-5.335-2.421,7.643,7.643,0,0,0-5.73,7.053,4.413,4.413,0,0,0,5.73,4.407,7.767,7.767,0,0,0,5.336-4.885,4.716,4.716,0,0,0,5.742,2.709,8.241,8.241,0,0,0,5.321-4.34,5.089,5.089,0,0,0,5.756,2.165,8.681,8.681,0,0,0,5.308-3.987,5.468,5.468,0,0,0,5.77,1.811,9.126,9.126,0,0,0,5.3-3.719,5.849,5.849,0,0,0,5.777,1.544,9.536,9.536,0,0,0,5.281-3.509,6.238,6.238,0,0,0,5.8,1.333V300.887A10.105,10.105,0,0,0,624.367,304.9ZM563.7,318.524a6.548,6.548,0,0,0-2.292,1.05v9.653a4.929,4.929,0,0,0,2.292-.008,7.135,7.135,0,0,0,5.348-6.582A4.117,4.117,0,0,0,563.7,318.524Zm60.669,1.652a5.988,5.988,0,0,0-5.281-1.07,9.663,9.663,0,0,0-5.777,4.212,5.6,5.6,0,0,0-5.3-1.273,9.231,9.231,0,0,0-5.77,4.475,5.2,5.2,0,0,0-5.308-1.535,8.77,8.77,0,0,0-5.756,4.823,4.812,4.812,0,0,0-5.322-1.884,8.286,8.286,0,0,0-5.742,5.361,4.43,4.43,0,0,0-5.335-2.421,7.643,7.643,0,0,0-5.73,7.052,4.412,4.412,0,0,0,5.73,4.407,7.765,7.765,0,0,0,5.335-4.884,4.72,4.72,0,0,0,5.743,2.709,8.242,8.242,0,0,0,5.321-4.341,5.089,5.089,0,0,0,5.756,2.165,8.683,8.683,0,0,0,5.308-3.986,5.468,5.468,0,0,0,5.77,1.811,9.121,9.121,0,0,0,5.3-3.72,5.847,5.847,0,0,0,5.777,1.544,9.535,9.535,0,0,0,5.281-3.509,5.793,5.793,0,0,0,3.661,1.518,58.632,58.632,0,0,0,2.136-15.464A10.11,10.11,0,0,0,624.367,320.176ZM563.7,303.244a6.55,6.55,0,0,0-2.292,1.051v9.652a4.915,4.915,0,0,0,2.292-.007,7.135,7.135,0,0,0,5.348-6.583A4.118,4.118,0,0,0,563.7,303.244Zm60.669-28.906a5.988,5.988,0,0,0-5.281-1.071,9.667,9.667,0,0,0-5.777,4.212,5.6,5.6,0,0,0-5.3-1.272,9.228,9.228,0,0,0-5.77,4.475,5.2,5.2,0,0,0-5.308-1.536,8.773,8.773,0,0,0-5.756,4.823,4.811,4.811,0,0,0-5.321-1.883,8.284,8.284,0,0,0-5.743,5.36,4.432,4.432,0,0,0-5.335-2.421,7.644,7.644,0,0,0-5.73,7.053,4.413,4.413,0,0,0,5.73,4.407,7.764,7.764,0,0,0,5.335-4.885,4.718,4.718,0,0,0,5.743,2.709,8.24,8.24,0,0,0,5.321-4.34,5.088,5.088,0,0,0,5.756,2.165,8.686,8.686,0,0,0,5.309-3.987,5.465,5.465,0,0,0,5.768,1.811,9.122,9.122,0,0,0,5.3-3.719,5.849,5.849,0,0,0,5.777,1.544,9.535,9.535,0,0,0,5.281-3.509,6.238,6.238,0,0,0,5.8,1.333V270.328A10.105,10.105,0,0,0,624.367,274.338ZM563.7,272.685a6.55,6.55,0,0,0-2.292,1.051v9.653a4.943,4.943,0,0,0,2.292-.008,7.135,7.135,0,0,0,5.348-6.583A4.118,4.118,0,0,0,563.7,272.685Zm0,15.28a6.547,6.547,0,0,0-2.292,1.05v9.653a4.929,4.929,0,0,0,2.292-.008,7.135,7.135,0,0,0,5.348-6.582A4.118,4.118,0,0,0,563.7,287.965Zm-26.731,57.2c0,.052-.008.1-.008.155a3.53,3.53,0,0,0,4.584,3.526,6.116,6.116,0,0,0,4.584-5.642l-7.64,1.763A7.753,7.753,0,0,1,536.967,345.169Zm87.4-9.713a5.988,5.988,0,0,0-5.281-1.071,9.663,9.663,0,0,0-5.777,4.212,5.6,5.6,0,0,0-5.3-1.272,9.225,9.225,0,0,0-5.769,4.474,5.2,5.2,0,0,0-5.309-1.535,8.772,8.772,0,0,0-5.756,4.823,4.811,4.811,0,0,0-5.321-1.883,8.284,8.284,0,0,0-5.743,5.36,4.432,4.432,0,0,0-5.335-2.421,7.643,7.643,0,0,0-5.73,7.053,4.412,4.412,0,0,0,5.73,4.406,7.763,7.763,0,0,0,5.335-4.884,4.717,4.717,0,0,0,5.742,2.709,8.239,8.239,0,0,0,5.322-4.341,5.088,5.088,0,0,0,5.756,2.166,8.685,8.685,0,0,0,5.308-3.987,5.468,5.468,0,0,0,5.77,1.811,9.119,9.119,0,0,0,5.3-3.719,5.849,5.849,0,0,0,5.777,1.544,8.5,8.5,0,0,0,1.908-.7q1.218-2.078,2.287-4.224a67.726,67.726,0,0,0,4.546-11.621A10.6,10.6,0,0,0,624.367,335.456Zm-71.746,16.566a6.625,6.625,0,0,0-4.966,6.112,3.824,3.824,0,0,0,4.965,3.82,6.627,6.627,0,0,0,4.967-6.113A3.825,3.825,0,0,0,552.621,352.022Zm0,15.279a6.628,6.628,0,0,0-4.967,6.113,3.825,3.825,0,0,0,4.966,3.819,6.625,6.625,0,0,0,4.966-6.112A3.824,3.824,0,0,0,552.621,367.3Zm0,15.28a6.625,6.625,0,0,0-4.966,6.112l9.931-2.293A3.823,3.823,0,0,0,552.621,382.581Zm1.145-41.137-6.111,1.411a3.823,3.823,0,0,0,4.965,3.819,6.624,6.624,0,0,0,4.966-6.112,4.7,4.7,0,0,0-.1-.952A9.48,9.48,0,0,1,553.766,341.444Zm9.932,38.2a7.136,7.136,0,0,0-5.348,6.583l10.7-2.47A4.118,4.118,0,0,0,563.7,379.641Zm60.669-120.583a5.988,5.988,0,0,0-5.281-1.07,9.663,9.663,0,0,0-5.777,4.212,5.6,5.6,0,0,0-5.3-1.273,9.231,9.231,0,0,0-5.77,4.475,5.2,5.2,0,0,0-5.308-1.535,8.772,8.772,0,0,0-5.756,4.823,4.812,4.812,0,0,0-5.321-1.884,8.288,8.288,0,0,0-5.743,5.361,4.43,4.43,0,0,0-5.335-2.421,7.643,7.643,0,0,0-5.73,7.052,4.412,4.412,0,0,0,5.73,4.407,7.768,7.768,0,0,0,5.336-4.884,4.718,4.718,0,0,0,5.742,2.709,8.242,8.242,0,0,0,5.321-4.341,5.089,5.089,0,0,0,5.756,2.165,8.683,8.683,0,0,0,5.308-3.986,5.468,5.468,0,0,0,5.77,1.811,9.12,9.12,0,0,0,5.3-3.72,5.847,5.847,0,0,0,5.777,1.544,9.53,9.53,0,0,0,5.281-3.509,6.239,6.239,0,0,0,5.8,1.334v-15.28A10.11,10.11,0,0,0,624.367,259.058Zm-11.058,94.818a5.6,5.6,0,0,0-5.3-1.272,9.232,9.232,0,0,0-5.769,4.475,5.2,5.2,0,0,0-5.308-1.536,8.775,8.775,0,0,0-5.756,4.823,4.812,4.812,0,0,0-5.322-1.883,8.282,8.282,0,0,0-5.741,5.36,4.432,4.432,0,0,0-5.336-2.42,7.643,7.643,0,0,0-5.73,7.052,4.412,4.412,0,0,0,5.73,4.407A7.764,7.764,0,0,0,580.111,368a4.72,4.72,0,0,0,5.743,2.71,8.242,8.242,0,0,0,5.321-4.341,5.088,5.088,0,0,0,5.756,2.165,8.683,8.683,0,0,0,5.308-3.986,5.107,5.107,0,0,0,3.69,1.969A76.032,76.032,0,0,0,620.212,349.5a7.317,7.317,0,0,0-1.126.164A9.665,9.665,0,0,0,613.309,353.876ZM563.7,349.082a7.137,7.137,0,0,0-5.348,6.583,4.118,4.118,0,0,0,5.348,4.113,7.135,7.135,0,0,0,5.348-6.582A4.119,4.119,0,0,0,563.7,349.082Zm27.477,26.564a4.812,4.812,0,0,0-5.322-1.883,8.283,8.283,0,0,0-5.742,5.36,4.432,4.432,0,0,0-5.335-2.421,7.643,7.643,0,0,0-5.73,7.052l7.64-1.763c1.027-.237,2.047-.505,3.06-.8a63.464,63.464,0,0,0,10.967-4.313,69.806,69.806,0,0,0,9.622-5.873,5.762,5.762,0,0,0-3.4-.186A8.772,8.772,0,0,0,591.175,375.646Zm33.192-86.029a5.988,5.988,0,0,0-5.281-1.07,9.663,9.663,0,0,0-5.777,4.212,5.6,5.6,0,0,0-5.3-1.273,9.227,9.227,0,0,0-5.769,4.475,5.2,5.2,0,0,0-5.309-1.535,8.772,8.772,0,0,0-5.756,4.823,4.812,4.812,0,0,0-5.322-1.884,8.286,8.286,0,0,0-5.742,5.361,4.43,4.43,0,0,0-5.335-2.421,7.643,7.643,0,0,0-5.73,7.052,4.412,4.412,0,0,0,5.73,4.407,7.765,7.765,0,0,0,5.335-4.884,4.719,4.719,0,0,0,5.742,2.709,8.241,8.241,0,0,0,5.322-4.341,5.088,5.088,0,0,0,5.756,2.165,8.683,8.683,0,0,0,5.308-3.986,5.47,5.47,0,0,0,5.77,1.811,9.121,9.121,0,0,0,5.3-3.72,5.847,5.847,0,0,0,5.777,1.544,9.531,9.531,0,0,0,5.281-3.509,6.239,6.239,0,0,0,5.8,1.334v-15.28A10.11,10.11,0,0,0,624.367,289.617ZM563.7,165.729a6.565,6.565,0,0,0-2.292,1.05v9.653a4.916,4.916,0,0,0,2.292-.008,7.133,7.133,0,0,0,5.348-6.582A4.118,4.118,0,0,0,563.7,165.729Zm0,91.677a6.547,6.547,0,0,0-2.292,1.05v9.653a4.93,4.93,0,0,0,2.292-.008,7.134,7.134,0,0,0,5.348-6.582A4.118,4.118,0,0,0,563.7,257.406Zm0-76.4a6.568,6.568,0,0,0-2.292,1.051v9.653a4.929,4.929,0,0,0,2.292-.008,7.135,7.135,0,0,0,5.348-6.582A4.119,4.119,0,0,0,563.7,181.008ZM624.367,152.1a5.985,5.985,0,0,0-5.281-1.07,9.665,9.665,0,0,0-5.777,4.211,5.6,5.6,0,0,0-5.3-1.272,9.227,9.227,0,0,0-5.769,4.475,5.2,5.2,0,0,0-5.309-1.536,8.775,8.775,0,0,0-5.756,4.823,4.811,4.811,0,0,0-5.321-1.883,8.286,8.286,0,0,0-5.743,5.36,4.432,4.432,0,0,0-5.335-2.421,7.645,7.645,0,0,0-5.73,7.053,4.412,4.412,0,0,0,5.73,4.407,7.764,7.764,0,0,0,5.335-4.885,4.718,4.718,0,0,0,5.743,2.709,8.238,8.238,0,0,0,5.321-4.34,5.089,5.089,0,0,0,5.756,2.165,8.688,8.688,0,0,0,5.309-3.986,5.465,5.465,0,0,0,5.769,1.81,9.115,9.115,0,0,0,5.3-3.719,5.849,5.849,0,0,0,5.777,1.544,9.535,9.535,0,0,0,5.281-3.509,6.241,6.241,0,0,0,5.8,1.334v-15.28A10.105,10.105,0,0,0,624.367,152.1Zm-62.961-6.229a4.93,4.93,0,0,0,2.292-.008,7.134,7.134,0,0,0,5.348-6.582l-7.64,1.764Zm7.64-6.59a4.412,4.412,0,0,0,5.73,4.407,7.765,7.765,0,0,0,5.335-4.884,4.719,4.719,0,0,0,5.742,2.709,8.241,8.241,0,0,0,5.322-4.341,5.088,5.088,0,0,0,5.756,2.165,8.686,8.686,0,0,0,5.309-3.987,5.466,5.466,0,0,0,5.769,1.812,9.128,9.128,0,0,0,5.3-3.72,5.847,5.847,0,0,0,5.777,1.544,9.536,9.536,0,0,0,5.281-3.509,6.241,6.241,0,0,0,5.8,1.334v-7.64ZM563.7,150.449a6.568,6.568,0,0,0-2.292,1.051v9.653a4.929,4.929,0,0,0,2.292-.008,7.135,7.135,0,0,0,5.348-6.582A4.119,4.119,0,0,0,563.7,150.449Zm60.669,32.212a5.988,5.988,0,0,0-5.281-1.07,9.665,9.665,0,0,0-5.777,4.211,5.6,5.6,0,0,0-5.3-1.272,9.227,9.227,0,0,0-5.769,4.475,5.2,5.2,0,0,0-5.309-1.536,8.775,8.775,0,0,0-5.756,4.823,4.813,4.813,0,0,0-5.321-1.883,8.285,8.285,0,0,0-5.743,5.36,4.432,4.432,0,0,0-5.335-2.421,7.644,7.644,0,0,0-5.73,7.053,4.412,4.412,0,0,0,5.73,4.407,7.764,7.764,0,0,0,5.335-4.885,4.717,4.717,0,0,0,5.742,2.709,8.237,8.237,0,0,0,5.322-4.34,5.088,5.088,0,0,0,5.756,2.165,8.686,8.686,0,0,0,5.309-3.987,5.468,5.468,0,0,0,5.769,1.812,9.128,9.128,0,0,0,5.3-3.72,5.847,5.847,0,0,0,5.777,1.544,9.535,9.535,0,0,0,5.281-3.509,6.238,6.238,0,0,0,5.8,1.333V178.651A10.105,10.105,0,0,0,624.367,182.661Zm0-45.838a5.988,5.988,0,0,0-5.281-1.071,9.663,9.663,0,0,0-5.777,4.212,5.6,5.6,0,0,0-5.3-1.273,9.235,9.235,0,0,0-5.769,4.475,5.2,5.2,0,0,0-5.308-1.535,8.775,8.775,0,0,0-5.756,4.823,4.811,4.811,0,0,0-5.321-1.883,8.284,8.284,0,0,0-5.743,5.36,4.432,4.432,0,0,0-5.335-2.421,7.644,7.644,0,0,0-5.73,7.053,4.413,4.413,0,0,0,5.73,4.407,7.768,7.768,0,0,0,5.335-4.885,4.717,4.717,0,0,0,5.742,2.709,8.239,8.239,0,0,0,5.322-4.341,5.088,5.088,0,0,0,5.756,2.165,8.681,8.681,0,0,0,5.309-3.986,5.466,5.466,0,0,0,5.769,1.811,9.119,9.119,0,0,0,5.3-3.719,5.849,5.849,0,0,0,5.777,1.544,9.536,9.536,0,0,0,5.281-3.509,6.241,6.241,0,0,0,5.8,1.333V132.813A10.1,10.1,0,0,0,624.367,136.823Zm0,30.559a5.988,5.988,0,0,0-5.281-1.071,9.663,9.663,0,0,0-5.777,4.212,5.6,5.6,0,0,0-5.3-1.273,9.234,9.234,0,0,0-5.77,4.475,5.2,5.2,0,0,0-5.308-1.535,8.77,8.77,0,0,0-5.756,4.823,4.812,4.812,0,0,0-5.321-1.884,8.288,8.288,0,0,0-5.743,5.361,4.432,4.432,0,0,0-5.335-2.421,7.644,7.644,0,0,0-5.73,7.053,4.413,4.413,0,0,0,5.73,4.407,7.766,7.766,0,0,0,5.335-4.885,4.718,4.718,0,0,0,5.743,2.709,8.239,8.239,0,0,0,5.321-4.341,5.088,5.088,0,0,0,5.756,2.165,8.681,8.681,0,0,0,5.309-3.986A5.466,5.466,0,0,0,608.009,183a9.117,9.117,0,0,0,5.3-3.72,5.847,5.847,0,0,0,5.777,1.545,9.541,9.541,0,0,0,5.281-3.509,6.241,6.241,0,0,0,5.8,1.333V163.372A10.1,10.1,0,0,0,624.367,167.382ZM563.7,242.126a6.549,6.549,0,0,0-2.292,1.051v9.652a4.915,4.915,0,0,0,2.292-.007,7.135,7.135,0,0,0,5.348-6.582A4.118,4.118,0,0,0,563.7,242.126ZM624.367,228.5a5.988,5.988,0,0,0-5.281-1.07,9.663,9.663,0,0,0-5.777,4.212,5.6,5.6,0,0,0-5.3-1.273,9.234,9.234,0,0,0-5.77,4.475,5.2,5.2,0,0,0-5.308-1.535,8.772,8.772,0,0,0-5.756,4.823,4.812,4.812,0,0,0-5.322-1.884,8.286,8.286,0,0,0-5.742,5.361,4.43,4.43,0,0,0-5.335-2.421,7.644,7.644,0,0,0-5.73,7.053,4.412,4.412,0,0,0,5.73,4.406,7.765,7.765,0,0,0,5.335-4.884,4.717,4.717,0,0,0,5.742,2.709,8.238,8.238,0,0,0,5.322-4.341,5.088,5.088,0,0,0,5.756,2.165,8.688,8.688,0,0,0,5.309-3.986,5.466,5.466,0,0,0,5.769,1.811,9.116,9.116,0,0,0,5.3-3.72,5.847,5.847,0,0,0,5.777,1.544,9.53,9.53,0,0,0,5.281-3.509,6.241,6.241,0,0,0,5.8,1.334v-15.28A10.11,10.11,0,0,0,624.367,228.5Zm0,15.28a5.986,5.986,0,0,0-5.281-1.07,9.657,9.657,0,0,0-5.777,4.211,5.6,5.6,0,0,0-5.3-1.272,9.231,9.231,0,0,0-5.77,4.475,5.2,5.2,0,0,0-5.308-1.536,8.775,8.775,0,0,0-5.756,4.823,4.811,4.811,0,0,0-5.321-1.883,8.284,8.284,0,0,0-5.743,5.36,4.432,4.432,0,0,0-5.335-2.421,7.644,7.644,0,0,0-5.73,7.053,4.412,4.412,0,0,0,5.73,4.407,7.764,7.764,0,0,0,5.335-4.885,4.717,4.717,0,0,0,5.742,2.709,8.24,8.24,0,0,0,5.322-4.34,5.088,5.088,0,0,0,5.756,2.165,8.681,8.681,0,0,0,5.308-3.987,5.468,5.468,0,0,0,5.77,1.811,9.119,9.119,0,0,0,5.3-3.719,5.849,5.849,0,0,0,5.777,1.544,9.535,9.535,0,0,0,5.281-3.509,6.238,6.238,0,0,0,5.8,1.333V239.769A10.1,10.1,0,0,0,624.367,243.779ZM563.7,226.847a6.566,6.566,0,0,0-2.292,1.05v9.653a4.93,4.93,0,0,0,2.292-.008,7.134,7.134,0,0,0,5.348-6.582A4.118,4.118,0,0,0,563.7,226.847Zm60.669-13.627a5.988,5.988,0,0,0-5.281-1.071,9.671,9.671,0,0,0-5.777,4.212,5.6,5.6,0,0,0-5.3-1.272,9.228,9.228,0,0,0-5.77,4.475,5.2,5.2,0,0,0-5.308-1.536,8.773,8.773,0,0,0-5.756,4.823,4.813,4.813,0,0,0-5.321-1.883,8.286,8.286,0,0,0-5.743,5.36,4.432,4.432,0,0,0-5.335-2.421,7.644,7.644,0,0,0-5.73,7.053,4.412,4.412,0,0,0,5.73,4.407,7.764,7.764,0,0,0,5.335-4.885,4.718,4.718,0,0,0,5.743,2.709,8.24,8.24,0,0,0,5.321-4.34,5.089,5.089,0,0,0,5.756,2.165,8.686,8.686,0,0,0,5.309-3.987,5.466,5.466,0,0,0,5.769,1.811,9.123,9.123,0,0,0,5.3-3.719,5.847,5.847,0,0,0,5.777,1.544,9.535,9.535,0,0,0,5.281-3.509,6.238,6.238,0,0,0,5.8,1.333V209.21A10.105,10.105,0,0,0,624.367,213.22Zm0-15.279a5.985,5.985,0,0,0-5.281-1.071,9.663,9.663,0,0,0-5.777,4.212,5.6,5.6,0,0,0-5.3-1.273,9.231,9.231,0,0,0-5.768,4.475,5.2,5.2,0,0,0-5.309-1.535,8.772,8.772,0,0,0-5.756,4.823,4.811,4.811,0,0,0-5.321-1.884,8.288,8.288,0,0,0-5.743,5.361,4.432,4.432,0,0,0-5.335-2.421,7.644,7.644,0,0,0-5.73,7.053,4.412,4.412,0,0,0,5.73,4.406,7.768,7.768,0,0,0,5.336-4.884,4.717,4.717,0,0,0,5.742,2.709,8.241,8.241,0,0,0,5.321-4.34,5.089,5.089,0,0,0,5.756,2.164,8.68,8.68,0,0,0,5.308-3.986,5.468,5.468,0,0,0,5.77,1.811,9.117,9.117,0,0,0,5.3-3.72,5.847,5.847,0,0,0,5.777,1.544,9.53,9.53,0,0,0,5.281-3.509,6.239,6.239,0,0,0,5.8,1.334V193.93A10.107,10.107,0,0,0,624.367,197.941ZM563.7,211.567a6.568,6.568,0,0,0-2.292,1.051v9.653a4.929,4.929,0,0,0,2.292-.008,7.135,7.135,0,0,0,5.348-6.582A4.118,4.118,0,0,0,563.7,211.567Zm0-15.279a6.532,6.532,0,0,0-2.292,1.051v9.652a4.929,4.929,0,0,0,2.292-.008,7.135,7.135,0,0,0,5.348-6.582A4.118,4.118,0,0,0,563.7,196.288ZM508.31,165.147a4.585,4.585,0,0,0-3.438,4.231,2.647,2.647,0,0,0,3.438,2.644,4.585,4.585,0,0,0,3.438-4.231A2.647,2.647,0,0,0,508.31,165.147Zm0,15.279a4.586,4.586,0,0,0-3.438,4.232,2.648,2.648,0,0,0,3.438,2.644,4.587,4.587,0,0,0,3.438-4.232A2.648,2.648,0,0,0,508.31,180.426Zm0-23.683a4.587,4.587,0,0,0,3.438-4.232l-6.876,1.588A2.648,2.648,0,0,0,508.31,156.743Zm11.078,173.538a5.1,5.1,0,0,0-3.82,4.7,2.941,2.941,0,0,0,3.82,2.938,5.1,5.1,0,0,0,3.82-4.7A2.942,2.942,0,0,0,519.388,330.281Zm-11.078-119.3a4.586,4.586,0,0,0-3.438,4.232,2.648,2.648,0,0,0,3.438,2.644,4.586,4.586,0,0,0,3.438-4.232A2.647,2.647,0,0,0,508.31,210.985Zm0-15.279a4.585,4.585,0,0,0-3.438,4.231,2.647,2.647,0,0,0,3.438,2.644,4.585,4.585,0,0,0,3.438-4.231A2.647,2.647,0,0,0,508.31,195.706ZM519.388,360.84a5.1,5.1,0,0,0-3.82,4.7,2.941,2.941,0,0,0,3.82,2.938,5.1,5.1,0,0,0,3.82-4.7A2.942,2.942,0,0,0,519.388,360.84Zm0,30.559a5.1,5.1,0,0,0-3.82,4.7l7.64-1.764A2.942,2.942,0,0,0,519.388,391.4Zm0-45.838a5.1,5.1,0,0,0-3.82,4.7,2.942,2.942,0,0,0,3.82,2.939,5.1,5.1,0,0,0,3.82-4.7A2.942,2.942,0,0,0,519.388,345.561Zm0,30.559a5.1,5.1,0,0,0-3.82,4.7,2.942,2.942,0,0,0,3.82,2.938,5.1,5.1,0,0,0,3.82-4.7A2.942,2.942,0,0,0,519.388,376.12ZM508.31,363.78a4.586,4.586,0,0,0-3.438,4.231,2.648,2.648,0,0,0,3.438,2.645,4.588,4.588,0,0,0,3.438-4.232A2.647,2.647,0,0,0,508.31,363.78Zm0-137.515a4.585,4.585,0,0,0-3.438,4.231,2.647,2.647,0,0,0,3.438,2.644,4.585,4.585,0,0,0,3.438-4.231A2.647,2.647,0,0,0,508.31,226.265Zm0,106.956a4.586,4.586,0,0,0-3.438,4.231,2.648,2.648,0,0,0,3.438,2.645,4.587,4.587,0,0,0,3.438-4.232A2.647,2.647,0,0,0,508.31,333.221Zm0-15.28a4.587,4.587,0,0,0-3.438,4.232,2.648,2.648,0,0,0,3.438,2.644,4.586,4.586,0,0,0,3.438-4.232A2.648,2.648,0,0,0,508.31,317.941Zm0,30.559a4.587,4.587,0,0,0-3.438,4.232,2.648,2.648,0,0,0,3.438,2.644,4.587,4.587,0,0,0,3.438-4.232A2.648,2.648,0,0,0,508.31,348.5Zm0-45.838a4.586,4.586,0,0,0-3.438,4.231,2.648,2.648,0,0,0,3.438,2.645,4.587,4.587,0,0,0,3.438-4.232A2.647,2.647,0,0,0,508.31,302.662Zm0-15.279a4.585,4.585,0,0,0-3.438,4.231,2.647,2.647,0,0,0,3.438,2.644,4.586,4.586,0,0,0,3.438-4.232A2.647,2.647,0,0,0,508.31,287.383Zm0-45.839a4.586,4.586,0,0,0-3.438,4.231,2.648,2.648,0,0,0,3.438,2.645,4.587,4.587,0,0,0,3.438-4.232A2.647,2.647,0,0,0,508.31,241.544Zm0,15.28a4.585,4.585,0,0,0-3.438,4.231,2.647,2.647,0,0,0,3.438,2.644,4.586,4.586,0,0,0,3.438-4.231A2.647,2.647,0,0,0,508.31,256.824Zm0,15.279a4.586,4.586,0,0,0-3.438,4.231,2.648,2.648,0,0,0,3.438,2.645,4.587,4.587,0,0,0,3.438-4.232A2.647,2.647,0,0,0,508.31,272.1Zm11.078-2.939a5.1,5.1,0,0,0-3.82,4.7,2.941,2.941,0,0,0,3.82,2.938,5.1,5.1,0,0,0,3.82-4.7A2.941,2.941,0,0,0,519.388,269.164ZM530.465,373.18a5.607,5.607,0,0,0-4.2,5.172,3.236,3.236,0,0,0,4.2,3.232,5.606,5.606,0,0,0,4.2-5.172A3.236,3.236,0,0,0,530.465,373.18Zm0,15.28a5.607,5.607,0,0,0-4.2,5.172l8.4-1.941A3.235,3.235,0,0,0,530.465,388.46ZM519.388,154.567a5.1,5.1,0,0,0,3.82-4.7l-7.64,1.763A2.941,2.941,0,0,0,519.388,154.567Zm0,7.64a5.1,5.1,0,0,0-3.82,4.7,2.941,2.941,0,0,0,3.82,2.938,5.1,5.1,0,0,0,3.82-4.7A2.942,2.942,0,0,0,519.388,162.207ZM541.543,385.52a6.116,6.116,0,0,0-4.584,5.642l9.168-2.116A3.53,3.53,0,0,0,541.543,385.52Zm0-15.279a6.114,6.114,0,0,0-4.584,5.642,3.529,3.529,0,0,0,4.584,3.525,6.114,6.114,0,0,0,4.584-5.642A3.529,3.529,0,0,0,541.543,370.241ZM519.388,177.487a5.1,5.1,0,0,0-3.82,4.7,2.941,2.941,0,0,0,3.82,2.938,5.1,5.1,0,0,0,3.82-4.7A2.942,2.942,0,0,0,519.388,177.487ZM531.777,342.53a4.062,4.062,0,0,0-1.311.092,5.6,5.6,0,0,0-4.2,5.171,3.236,3.236,0,0,0,4.2,3.232,5.606,5.606,0,0,0,4.2-5.172,3.787,3.787,0,0,0-.158-1.093A5.5,5.5,0,0,1,531.777,342.53ZM530.465,357.9a5.6,5.6,0,0,0-4.2,5.172,3.236,3.236,0,0,0,4.2,3.232,5.607,5.607,0,0,0,4.2-5.173A3.235,3.235,0,0,0,530.465,357.9ZM519.388,192.766a5.1,5.1,0,0,0-3.82,4.7,2.941,2.941,0,0,0,3.82,2.938,5.1,5.1,0,0,0,3.82-4.7A2.942,2.942,0,0,0,519.388,192.766Zm0,61.118a5.1,5.1,0,0,0-3.82,4.7,2.942,2.942,0,0,0,3.82,2.938,5.1,5.1,0,0,0,3.82-4.7A2.942,2.942,0,0,0,519.388,253.884Zm0,30.559a5.1,5.1,0,0,0-3.82,4.7,2.941,2.941,0,0,0,3.82,2.938,5.1,5.1,0,0,0,3.82-4.7A2.942,2.942,0,0,0,519.388,284.443Zm22.155,70.518a6.116,6.116,0,0,0-4.584,5.642,3.53,3.53,0,0,0,4.584,3.526,6.114,6.114,0,0,0,4.584-5.642A3.53,3.53,0,0,0,541.543,354.961ZM519.388,315a5.1,5.1,0,0,0-3.82,4.7,2.942,2.942,0,0,0,3.82,2.938,5.1,5.1,0,0,0,3.82-4.7A2.942,2.942,0,0,0,519.388,315Zm0-15.28a5.1,5.1,0,0,0-3.82,4.7,2.941,2.941,0,0,0,3.82,2.938,5.1,5.1,0,0,0,3.82-4.7A2.942,2.942,0,0,0,519.388,299.722Zm0-91.676a5.1,5.1,0,0,0-3.82,4.7,2.941,2.941,0,0,0,3.82,2.938,5.1,5.1,0,0,0,3.82-4.7A2.941,2.941,0,0,0,519.388,208.046Zm0,30.558a5.1,5.1,0,0,0-3.82,4.7,2.941,2.941,0,0,0,3.82,2.938,5.1,5.1,0,0,0,3.82-4.7A2.942,2.942,0,0,0,519.388,238.6Zm0-15.279a5.1,5.1,0,0,0-3.82,4.7,2.941,2.941,0,0,0,3.82,2.938,5.1,5.1,0,0,0,3.82-4.7A2.942,2.942,0,0,0,519.388,223.325Z" fill="#166cdb"/>
    </g>
    <g id="Group_28" data-name="Group 28">
      <path id="Path_41" data-name="Path 41" d="M333.65,337.328a3.568,3.568,0,0,0-2.674,3.291,2.059,2.059,0,0,0,2.674,2.057,3.568,3.568,0,0,0,2.674-3.291A2.06,2.06,0,0,0,333.65,337.328Zm0,15.28a3.567,3.567,0,0,0-2.674,3.291,2.058,2.058,0,0,0,2.674,2.056,3.567,3.567,0,0,0,2.674-3.291A2.059,2.059,0,0,0,333.65,352.608Zm0-30.559a3.567,3.567,0,0,0-2.674,3.291,2.059,2.059,0,0,0,2.674,2.056,3.566,3.566,0,0,0,2.674-3.291A2.059,2.059,0,0,0,333.65,322.049Zm0,45.838a3.568,3.568,0,0,0-2.674,3.291,2.059,2.059,0,0,0,2.674,2.057,3.568,3.568,0,0,0,2.674-3.291A2.06,2.06,0,0,0,333.65,367.887Zm0,15.28a3.567,3.567,0,0,0-2.674,3.291,2.059,2.059,0,0,0,2.674,2.056,3.568,3.568,0,0,0,2.674-3.291A2.059,2.059,0,0,0,333.65,383.167Zm0,15.279a3.568,3.568,0,0,0-2.674,3.291,2.059,2.059,0,0,0,2.674,2.057,3.569,3.569,0,0,0,2.674-3.291A2.059,2.059,0,0,0,333.65,398.446Zm0-122.236a3.568,3.568,0,0,0-2.674,3.291,2.059,2.059,0,0,0,2.674,2.057,3.568,3.568,0,0,0,2.674-3.291A2.059,2.059,0,0,0,333.65,276.21Zm0-15.279a3.567,3.567,0,0,0-2.674,3.291,2.059,2.059,0,0,0,2.674,2.057,3.568,3.568,0,0,0,2.674-3.292A2.059,2.059,0,0,0,333.65,260.931Zm0,45.838a3.568,3.568,0,0,0-2.674,3.292,2.059,2.059,0,0,0,2.674,2.056,3.568,3.568,0,0,0,2.674-3.291A2.059,2.059,0,0,0,333.65,306.769Zm-11.078,2.94a3.058,3.058,0,0,0-2.292,2.821,1.764,1.764,0,0,0,2.292,1.762,3.057,3.057,0,0,0,2.292-2.82A1.765,1.765,0,0,0,322.572,309.709Zm11.078-64.058a3.568,3.568,0,0,0-2.674,3.291A2.059,2.059,0,0,0,333.65,251a3.568,3.568,0,0,0,2.674-3.291A2.059,2.059,0,0,0,333.65,245.651ZM322.572,263.87a3.06,3.06,0,0,0-2.292,2.821,1.765,1.765,0,0,0,2.292,1.763,3.057,3.057,0,0,0,2.292-2.821A1.765,1.765,0,0,0,322.572,263.87Zm0-15.279a3.058,3.058,0,0,0-2.292,2.821,1.765,1.765,0,0,0,2.292,1.763,3.059,3.059,0,0,0,2.292-2.821A1.765,1.765,0,0,0,322.572,248.591Zm0,45.838a3.059,3.059,0,0,0-2.292,2.821,1.765,1.765,0,0,0,2.292,1.763,3.057,3.057,0,0,0,2.292-2.821A1.765,1.765,0,0,0,322.572,294.429ZM355.8,407.847a4.586,4.586,0,0,0-3.438,4.231,2.647,2.647,0,0,0,3.438,2.644,4.586,4.586,0,0,0,3.438-4.231A2.647,2.647,0,0,0,355.8,407.847Zm-22.155,5.879a3.567,3.567,0,0,0-2.674,3.291,2.059,2.059,0,0,0,2.674,2.056,3.567,3.567,0,0,0,2.674-3.291A2.059,2.059,0,0,0,333.65,413.726ZM322.572,233.311a3.059,3.059,0,0,0-2.292,2.821,1.765,1.765,0,0,0,2.292,1.763,3.057,3.057,0,0,0,2.292-2.821A1.765,1.765,0,0,0,322.572,233.311Zm0-15.279a3.057,3.057,0,0,0-2.292,2.821,1.765,1.765,0,0,0,2.292,1.763,3.057,3.057,0,0,0,2.292-2.821A1.765,1.765,0,0,0,322.572,218.032ZM333.65,429.005a3.567,3.567,0,0,0-2.674,3.291l5.348-1.234A2.06,2.06,0,0,0,333.65,429.005ZM322.572,192.057a3.057,3.057,0,0,0,2.292-2.821l-4.584,1.058A1.765,1.765,0,0,0,322.572,192.057Zm0,10.7a3.058,3.058,0,0,0-2.292,2.82,1.765,1.765,0,0,0,2.292,1.763,3.057,3.057,0,0,0,2.292-2.821A1.764,1.764,0,0,0,322.572,202.753ZM333.65,291.49a3.567,3.567,0,0,0-2.674,3.291,2.059,2.059,0,0,0,2.674,2.056,3.567,3.567,0,0,0,2.674-3.291A2.059,2.059,0,0,0,333.65,291.49Zm11.078-33.5a4.077,4.077,0,0,0-3.057,3.761,2.353,2.353,0,0,0,3.056,2.35,4.076,4.076,0,0,0,3.056-3.761A2.352,2.352,0,0,0,344.728,257.992Zm0-30.559a4.076,4.076,0,0,0-3.056,3.761,2.353,2.353,0,0,0,3.057,2.35,4.077,4.077,0,0,0,3.055-3.761A2.353,2.353,0,0,0,344.727,227.433Zm0,15.279a4.077,4.077,0,0,0-3.056,3.761,2.354,2.354,0,0,0,3.056,2.351,4.078,4.078,0,0,0,3.056-3.762A2.353,2.353,0,0,0,344.727,242.712Zm0,45.838a4.078,4.078,0,0,0-3.056,3.762,2.353,2.353,0,0,0,3.056,2.35,4.076,4.076,0,0,0,3.056-3.761A2.354,2.354,0,0,0,344.727,288.55Zm0,15.28a4.078,4.078,0,0,0-3.057,3.761,2.354,2.354,0,0,0,3.056,2.351,4.078,4.078,0,0,0,3.056-3.762A2.353,2.353,0,0,0,344.728,303.83Zm0-30.559a4.078,4.078,0,0,0-3.056,3.761,2.354,2.354,0,0,0,3.056,2.351,4.078,4.078,0,0,0,3.056-3.762A2.353,2.353,0,0,0,344.727,273.271ZM355.8,423.126a4.586,4.586,0,0,0-3.438,4.232l6.876-1.588A2.648,2.648,0,0,0,355.8,423.126ZM333.65,215.092a3.568,3.568,0,0,0-2.674,3.292,2.059,2.059,0,0,0,2.674,2.056,3.568,3.568,0,0,0,2.674-3.291A2.06,2.06,0,0,0,333.65,215.092Zm11.077-27.386a4.077,4.077,0,0,0,3.056-3.761l-6.112,1.41A2.354,2.354,0,0,0,344.727,187.706Zm0,9.168a4.076,4.076,0,0,0-3.056,3.761,2.353,2.353,0,0,0,3.056,2.35,4.075,4.075,0,0,0,3.056-3.761A2.353,2.353,0,0,0,344.727,196.874Zm0,15.279a4.08,4.08,0,0,0-3.057,3.761,2.354,2.354,0,0,0,3.056,2.351,4.077,4.077,0,0,0,3.056-3.761A2.353,2.353,0,0,0,344.728,212.153Zm0,183.354a4.076,4.076,0,0,0-3.056,3.761,2.353,2.353,0,0,0,3.056,2.35,4.075,4.075,0,0,0,3.056-3.761A2.353,2.353,0,0,0,344.727,395.507Zm0,15.279a4.079,4.079,0,0,0-3.056,3.762,2.353,2.353,0,0,0,3.056,2.35,4.078,4.078,0,0,0,3.056-3.762A2.353,2.353,0,0,0,344.727,410.786Zm0,15.279a4.079,4.079,0,0,0-3.057,3.762l6.112-1.411A2.353,2.353,0,0,0,344.728,426.065Zm0-106.956a4.079,4.079,0,0,0-3.057,3.762,2.353,2.353,0,0,0,3.056,2.35,4.076,4.076,0,0,0,3.056-3.761A2.353,2.353,0,0,0,344.728,319.109ZM333.65,189.881a3.568,3.568,0,0,0,2.674-3.291l-5.348,1.235A2.059,2.059,0,0,0,333.65,189.881Zm0,9.932a3.568,3.568,0,0,0-2.674,3.291,2.059,2.059,0,0,0,2.674,2.057,3.568,3.568,0,0,0,2.674-3.291A2.059,2.059,0,0,0,333.65,199.813Zm11.077,134.576a4.076,4.076,0,0,0-3.056,3.761,2.354,2.354,0,0,0,3.057,2.351,4.078,4.078,0,0,0,3.055-3.762A2.353,2.353,0,0,0,344.727,334.389Zm0,15.279a4.078,4.078,0,0,0-3.056,3.762,2.353,2.353,0,0,0,3.056,2.35,4.076,4.076,0,0,0,3.056-3.761A2.354,2.354,0,0,0,344.727,349.668Zm0,30.559a4.079,4.079,0,0,0-3.056,3.762,2.353,2.353,0,0,0,3.056,2.35,4.078,4.078,0,0,0,3.056-3.762A2.353,2.353,0,0,0,344.727,380.227Zm0-15.279a4.077,4.077,0,0,0-3.057,3.761,2.353,2.353,0,0,0,3.056,2.35,4.075,4.075,0,0,0,3.056-3.761A2.353,2.353,0,0,0,344.728,364.948Zm-22.156-85.8a3.057,3.057,0,0,0-2.292,2.821,1.765,1.765,0,0,0,2.292,1.763,3.059,3.059,0,0,0,2.292-2.821A1.765,1.765,0,0,0,322.572,279.15Zm55.388-21.573c.129-.03.256-.067.382-.108V249.1c-.126.018-.253.039-.382.069a5.607,5.607,0,0,0-4.2,5.172A3.236,3.236,0,0,0,377.96,257.577Zm0-15.28c.129-.03.256-.067.382-.107v-8.365c-.126.017-.253.039-.382.069a5.6,5.6,0,0,0-4.2,5.171A3.236,3.236,0,0,0,377.96,242.3Zm30.218,69.635a4.689,4.689,0,0,0,3.015.236,7.136,7.136,0,0,0,5.348-6.582,4.119,4.119,0,0,0-5.348-4.114,7.137,7.137,0,0,0-5.348,6.583,4.729,4.729,0,0,0,.31,1.708A5.494,5.494,0,0,1,408.178,311.932Zm3.015-15.044a7.134,7.134,0,0,0,5.348-6.582,4.118,4.118,0,0,0-5.348-4.113,7.135,7.135,0,0,0-5.348,6.583A4.117,4.117,0,0,0,411.193,296.888Zm11.078,13.105a7.768,7.768,0,0,0,5.335-4.885,4.717,4.717,0,0,0,5.742,2.709,8.238,8.238,0,0,0,5.322-4.341,5.087,5.087,0,0,0,5.756,2.166,8.681,8.681,0,0,0,5.308-3.987,5.467,5.467,0,0,0,5.769,1.811,9.121,9.121,0,0,0,5.3-3.719,5.849,5.849,0,0,0,5.777,1.544,9.539,9.539,0,0,0,5.281-3.509,6.112,6.112,0,0,0,5.246,1.433,44,44,0,0,0-3.942-12.872,10.831,10.831,0,0,0-1.3,1.5,5.988,5.988,0,0,0-5.281-1.071,9.668,9.668,0,0,0-5.778,4.212,5.6,5.6,0,0,0-5.3-1.272,9.226,9.226,0,0,0-5.769,4.475,5.2,5.2,0,0,0-5.308-1.536,8.77,8.77,0,0,0-5.756,4.823,4.812,4.812,0,0,0-5.322-1.883,8.285,8.285,0,0,0-5.742,5.36,4.432,4.432,0,0,0-5.335-2.421,7.644,7.644,0,0,0-5.73,7.053A4.413,4.413,0,0,0,422.271,309.993ZM377.96,333.974c.129-.03.256-.067.382-.107V325.5c-.126.018-.253.04-.382.069a5.607,5.607,0,0,0-4.2,5.172A3.235,3.235,0,0,0,377.96,333.974Zm0,15.279c.129-.029.256-.066.382-.107v-8.365c-.126.017-.253.039-.382.069a5.607,5.607,0,0,0-4.2,5.172A3.235,3.235,0,0,0,377.96,349.253Zm-66.466,85.631a2.548,2.548,0,0,0-1.909,2.351l3.819-.882A1.471,1.471,0,0,0,311.494,434.884Zm0-15.279a2.548,2.548,0,0,0-1.909,2.35,1.47,1.47,0,0,0,1.909,1.469,2.55,2.55,0,0,0,1.911-2.35A1.471,1.471,0,0,0,311.494,419.605ZM422.271,294.713a7.765,7.765,0,0,0,5.335-4.884,4.718,4.718,0,0,0,5.742,2.709,8.241,8.241,0,0,0,5.322-4.341,5.089,5.089,0,0,0,5.756,2.165,8.68,8.68,0,0,0,5.308-3.986,5.467,5.467,0,0,0,5.769,1.811,9.118,9.118,0,0,0,5.3-3.72,5.847,5.847,0,0,0,5.778,1.544,9.392,9.392,0,0,0,4.8-2.931,38.591,38.591,0,0,0-6.266-7.807c-.7-.675-1.437-1.318-2.191-1.936a10.24,10.24,0,0,0-2.119,2.37,5.6,5.6,0,0,0-5.3-1.272,9.232,9.232,0,0,0-5.769,4.475,5.2,5.2,0,0,0-5.308-1.535,8.768,8.768,0,0,0-5.756,4.823,4.812,4.812,0,0,0-5.322-1.884,8.286,8.286,0,0,0-5.742,5.361,4.431,4.431,0,0,0-5.335-2.421,7.643,7.643,0,0,0-5.73,7.052A4.412,4.412,0,0,0,422.271,294.713Zm-44.311,69.82c.129-.03.256-.067.382-.107V356.06c-.126.018-.253.04-.382.069a5.608,5.608,0,0,0-4.2,5.172A3.236,3.236,0,0,0,377.96,364.533Zm44.311-85.1a7.764,7.764,0,0,0,5.335-4.885,4.717,4.717,0,0,0,5.742,2.709,8.24,8.24,0,0,0,5.322-4.34,5.089,5.089,0,0,0,5.756,2.165,8.684,8.684,0,0,0,5.308-3.987,5.467,5.467,0,0,0,5.769,1.811,9.125,9.125,0,0,0,5.3-3.719,5.244,5.244,0,0,0,2.119,1.392q1.131-1.449,2.191-2.947a73.258,73.258,0,0,0,6.266-10.7,6.131,6.131,0,0,0-4.8-.716,9.667,9.667,0,0,0-5.777,4.212,5.6,5.6,0,0,0-5.3-1.272,9.229,9.229,0,0,0-5.769,4.475,5.2,5.2,0,0,0-5.308-1.536,8.772,8.772,0,0,0-5.756,4.823,4.812,4.812,0,0,0-5.322-1.883,8.283,8.283,0,0,0-5.742,5.36,4.432,4.432,0,0,0-5.335-2.421,7.644,7.644,0,0,0-5.73,7.053A4.413,4.413,0,0,0,422.271,279.434Zm0-91.677a7.766,7.766,0,0,0,5.335-4.885,4.718,4.718,0,0,0,5.742,2.71,8.241,8.241,0,0,0,5.322-4.341,5.089,5.089,0,0,0,5.756,2.165,8.683,8.683,0,0,0,5.308-3.986,5.469,5.469,0,0,0,5.769,1.811,9.123,9.123,0,0,0,5.3-3.72,5.847,5.847,0,0,0,5.777,1.544,8.407,8.407,0,0,0,1.126-.356,38.276,38.276,0,0,0-8.135-7.141,39.363,39.363,0,0,0-6.148-3.277,9.6,9.6,0,0,0-3.69,3.673,5.2,5.2,0,0,0-5.308-1.536,8.77,8.77,0,0,0-5.756,4.823,4.812,4.812,0,0,0-5.322-1.883,8.285,8.285,0,0,0-5.742,5.36,4.431,4.431,0,0,0-5.335-2.42,7.643,7.643,0,0,0-5.73,7.052A4.412,4.412,0,0,0,422.271,187.757Zm-11.078,2.175a7.133,7.133,0,0,0,5.348-6.582,4.118,4.118,0,0,0-5.348-4.113,7.135,7.135,0,0,0-5.348,6.582A4.117,4.117,0,0,0,411.193,189.932Zm0-15.279a7.136,7.136,0,0,0,5.348-6.583l-10.7,2.47A4.118,4.118,0,0,0,411.193,174.653Zm11.078-2.176a7.765,7.765,0,0,0,5.335-4.884,4.717,4.717,0,0,0,5.742,2.709,8.241,8.241,0,0,0,5.322-4.341,5.091,5.091,0,0,0,5.756,2.166,8.144,8.144,0,0,0,3.4-1.758,44.919,44.919,0,0,0-9.622-1.431,51.558,51.558,0,0,0-10.967.752c-1.013.176-2.033.379-3.061.617l-7.639,1.763A4.412,4.412,0,0,0,422.271,172.477Zm0,30.56a7.766,7.766,0,0,0,5.335-4.885,4.717,4.717,0,0,0,5.742,2.709,8.241,8.241,0,0,0,5.322-4.341,5.087,5.087,0,0,0,5.756,2.166,8.685,8.685,0,0,0,5.308-3.987,5.467,5.467,0,0,0,5.769,1.811,9.119,9.119,0,0,0,5.3-3.72,5.844,5.844,0,0,0,5.777,1.544,9.537,9.537,0,0,0,5.281-3.508,5.767,5.767,0,0,0,3.46,1.5,41.068,41.068,0,0,0-4.546-9.522,38.536,38.536,0,0,0-2.287-3.168,7.091,7.091,0,0,0-1.908.178,9.663,9.663,0,0,0-5.777,4.212,5.6,5.6,0,0,0-5.3-1.272,9.228,9.228,0,0,0-5.769,4.475,5.2,5.2,0,0,0-5.308-1.536,8.768,8.768,0,0,0-5.756,4.823,4.812,4.812,0,0,0-5.322-1.883,8.283,8.283,0,0,0-5.742,5.36,4.432,4.432,0,0,0-5.335-2.421,7.643,7.643,0,0,0-5.73,7.052A4.413,4.413,0,0,0,422.271,203.037Zm0,61.117a7.765,7.765,0,0,0,5.335-4.884,4.717,4.717,0,0,0,5.742,2.709,8.241,8.241,0,0,0,5.322-4.341,5.088,5.088,0,0,0,5.756,2.165,8.683,8.683,0,0,0,5.308-3.986,5.466,5.466,0,0,0,5.769,1.811,9.123,9.123,0,0,0,5.3-3.72,5.847,5.847,0,0,0,5.777,1.544,9.537,9.537,0,0,0,5.281-3.508,5.5,5.5,0,0,0,1.3.9,63.381,63.381,0,0,0,3.942-14.691,10.226,10.226,0,0,0-5.246,3.854,5.989,5.989,0,0,0-5.281-1.07,9.668,9.668,0,0,0-5.778,4.212,5.6,5.6,0,0,0-5.3-1.272,9.228,9.228,0,0,0-5.769,4.474,5.2,5.2,0,0,0-5.308-1.535,8.77,8.77,0,0,0-5.756,4.823,4.812,4.812,0,0,0-5.322-1.884,8.288,8.288,0,0,0-5.742,5.361,4.43,4.43,0,0,0-5.335-2.421,7.643,7.643,0,0,0-5.73,7.052A4.412,4.412,0,0,0,422.271,264.154Zm-11.078-58.942a7.136,7.136,0,0,0,5.348-6.583,4.119,4.119,0,0,0-5.348-4.113,7.136,7.136,0,0,0-5.348,6.583A4.118,4.118,0,0,0,411.193,205.212Zm0,61.118a7.136,7.136,0,0,0,5.348-6.583,4.118,4.118,0,0,0-5.348-4.113,6.784,6.784,0,0,0-3.015,1.628,10.585,10.585,0,0,1-2.023,3.1,5.974,5.974,0,0,0-.31,1.851A4.118,4.118,0,0,0,411.193,266.33Zm0,15.279a7.136,7.136,0,0,0,5.348-6.582,4.119,4.119,0,0,0-5.348-4.114,7.136,7.136,0,0,0-5.348,6.583A4.118,4.118,0,0,0,411.193,281.609Zm-99.7,122.716a2.549,2.549,0,0,0-1.909,2.351,1.47,1.47,0,0,0,1.909,1.469,2.547,2.547,0,0,0,1.91-2.351A1.471,1.471,0,0,0,311.494,404.325Zm11.078-64.057a3.057,3.057,0,0,0-2.292,2.821,1.764,1.764,0,0,0,2.292,1.762,3.057,3.057,0,0,0,2.292-2.82A1.765,1.765,0,0,0,322.572,340.268Zm0,91.676a3.061,3.061,0,0,0-2.292,2.822l4.584-1.059A1.765,1.765,0,0,0,322.572,431.944Zm-11.078-42.9a2.549,2.549,0,0,0-1.91,2.35,1.471,1.471,0,0,0,1.91,1.469,2.546,2.546,0,0,0,1.91-2.35A1.47,1.47,0,0,0,311.494,389.046Zm11.078,12.34a3.057,3.057,0,0,0-2.292,2.821,1.764,1.764,0,0,0,2.292,1.762,3.057,3.057,0,0,0,2.292-2.821A1.764,1.764,0,0,0,322.572,401.386ZM311.494,194.233a2.548,2.548,0,0,0,1.91-2.352l-3.819.882A1.471,1.471,0,0,0,311.494,194.233Zm0,26.738a2.55,2.55,0,0,0-1.91,2.351,1.471,1.471,0,0,0,1.91,1.469,2.548,2.548,0,0,0,1.911-2.351A1.472,1.472,0,0,0,311.494,220.971Zm0-15.279a2.548,2.548,0,0,0-1.909,2.351,1.47,1.47,0,0,0,1.909,1.469,2.551,2.551,0,0,0,1.911-2.351A1.471,1.471,0,0,0,311.494,205.692Zm11.078,149.855a3.057,3.057,0,0,0-2.292,2.821,1.765,1.765,0,0,0,2.292,1.763,3.057,3.057,0,0,0,2.292-2.821A1.765,1.765,0,0,0,322.572,355.547Zm0,30.559a3.057,3.057,0,0,0-2.292,2.821,1.765,1.765,0,0,0,2.292,1.763,3.058,3.058,0,0,0,2.292-2.821A1.765,1.765,0,0,0,322.572,386.106Zm0-61.118a3.057,3.057,0,0,0-2.292,2.821,1.765,1.765,0,0,0,2.292,1.763,3.057,3.057,0,0,0,2.292-2.821A1.765,1.765,0,0,0,322.572,324.988Zm0,45.838a3.061,3.061,0,0,0-2.292,2.822,1.764,1.764,0,0,0,2.292,1.762,3.057,3.057,0,0,0,2.292-2.821A1.765,1.765,0,0,0,322.572,370.826Zm0,45.839a3.058,3.058,0,0,0-2.292,2.821,1.765,1.765,0,0,0,2.292,1.763,3.059,3.059,0,0,0,2.292-2.821A1.765,1.765,0,0,0,322.572,416.665Zm-11.078-73.458a2.549,2.549,0,0,0-1.909,2.351,1.47,1.47,0,0,0,1.909,1.469,2.547,2.547,0,0,0,1.91-2.351A1.471,1.471,0,0,0,311.494,343.207Zm0-106.956a2.55,2.55,0,0,0-1.91,2.351,1.471,1.471,0,0,0,1.91,1.469,2.546,2.546,0,0,0,1.91-2.351A1.47,1.47,0,0,0,311.494,236.251Zm0,76.4A2.549,2.549,0,0,0,309.585,315a1.47,1.47,0,0,0,1.909,1.469,2.548,2.548,0,0,0,1.911-2.351A1.472,1.472,0,0,0,311.494,312.648Zm0,45.839a2.548,2.548,0,0,0-1.909,2.35,1.47,1.47,0,0,0,1.909,1.469,2.547,2.547,0,0,0,1.91-2.351A1.47,1.47,0,0,0,311.494,358.487Zm0,15.279a2.549,2.549,0,0,0-1.909,2.351,1.47,1.47,0,0,0,1.909,1.469,2.549,2.549,0,0,0,1.911-2.351A1.472,1.472,0,0,0,311.494,373.766Zm0-45.838a2.548,2.548,0,0,0-1.91,2.35,1.472,1.472,0,0,0,1.91,1.47A2.552,2.552,0,0,0,313.4,329.4,1.471,1.471,0,0,0,311.494,327.928Zm0-61.118a2.548,2.548,0,0,0-1.909,2.351,1.471,1.471,0,0,0,1.909,1.469,2.551,2.551,0,0,0,1.911-2.351A1.471,1.471,0,0,0,311.494,266.81Zm0-15.28a2.549,2.549,0,0,0-1.909,2.351,1.47,1.47,0,0,0,1.909,1.469A2.55,2.55,0,0,0,313.4,253,1.472,1.472,0,0,0,311.494,251.53Zm0,45.839a2.548,2.548,0,0,0-1.909,2.35,1.471,1.471,0,0,0,1.909,1.47,2.547,2.547,0,0,0,1.91-2.351A1.47,1.47,0,0,0,311.494,297.369Zm0-15.28a2.55,2.55,0,0,0-1.91,2.351,1.471,1.471,0,0,0,1.91,1.469,2.545,2.545,0,0,0,1.91-2.351A1.471,1.471,0,0,0,311.494,282.089Zm22.156-51.717a3.567,3.567,0,0,0-2.674,3.291,2.059,2.059,0,0,0,2.674,2.057,3.569,3.569,0,0,0,2.674-3.292A2.059,2.059,0,0,0,333.65,230.372ZM389.038,179a6.118,6.118,0,0,0,4.584-5.642l-9.168,2.116A3.53,3.53,0,0,0,389.038,179Zm11.078,201.8a6.626,6.626,0,0,0-4.966,6.112,3.824,3.824,0,0,0,4.966,3.82,6.625,6.625,0,0,0,4.965-6.112A3.824,3.824,0,0,0,400.116,380.809Zm0-76.4a6.625,6.625,0,0,0-4.965,6.112l6.111-1.411a6.882,6.882,0,0,1,3.723.115,5.314,5.314,0,0,0,.1-1A3.824,3.824,0,0,0,400.115,304.412Zm0,106.956a6.625,6.625,0,0,0-4.965,6.113l9.931-2.293A3.824,3.824,0,0,0,400.115,411.368Zm0-15.279a6.625,6.625,0,0,0-4.965,6.112,3.823,3.823,0,0,0,4.965,3.819,6.624,6.624,0,0,0,4.966-6.112A3.824,3.824,0,0,0,400.115,396.089Zm-11.077,18.219a6.114,6.114,0,0,0-4.584,5.642l9.168-2.117A3.529,3.529,0,0,0,389.038,414.308Zm11.077-201.573a6.625,6.625,0,0,0-4.965,6.113l6.111-1.412a6.891,6.891,0,0,1,3.723.115,5.3,5.3,0,0,0,.1-1A3.824,3.824,0,0,0,400.115,212.735Zm0,76.4a6.624,6.624,0,0,0-4.965,6.112,3.823,3.823,0,0,0,4.965,3.819,6.624,6.624,0,0,0,4.966-6.112A3.823,3.823,0,0,0,400.115,289.133Zm0-91.677a6.625,6.625,0,0,0-4.965,6.112,3.823,3.823,0,0,0,4.965,3.819,6.624,6.624,0,0,0,4.966-6.112A3.823,3.823,0,0,0,400.115,197.456Zm0,76.4a6.626,6.626,0,0,0-4.966,6.112,3.824,3.824,0,0,0,4.966,3.82,6.626,6.626,0,0,0,4.965-6.113A3.823,3.823,0,0,0,400.116,273.853Zm1.145-10.578-6.111,1.411a3.824,3.824,0,0,0,4.966,3.819,6.624,6.624,0,0,0,4.965-6.112,4.634,4.634,0,0,0-.1-.952A9.47,9.47,0,0,1,401.261,263.275Zm-12.223,28.8a6.115,6.115,0,0,0-4.584,5.642,3.53,3.53,0,0,0,4.584,3.526,6.116,6.116,0,0,0,4.583-5.642A3.529,3.529,0,0,0,389.038,292.072Zm11.077-109.9a6.626,6.626,0,0,0-4.965,6.113,3.823,3.823,0,0,0,4.965,3.819A6.625,6.625,0,0,0,405.081,186,3.824,3.824,0,0,0,400.115,182.176Zm-11.077,2.94a6.114,6.114,0,0,0-4.584,5.642,3.53,3.53,0,0,0,4.584,3.526,6.117,6.117,0,0,0,4.583-5.643A3.529,3.529,0,0,0,389.038,185.116Zm0,122.235a6.116,6.116,0,0,0-4.584,5.643l9.168-2.117A3.531,3.531,0,0,0,389.038,307.351Zm0,91.677a6.116,6.116,0,0,0-4.584,5.642,3.53,3.53,0,0,0,4.584,3.526,6.118,6.118,0,0,0,4.584-5.642A3.53,3.53,0,0,0,389.038,399.028Zm0-15.279a6.114,6.114,0,0,0-4.584,5.642,3.53,3.53,0,0,0,4.584,3.526,6.119,6.119,0,0,0,4.584-5.643A3.53,3.53,0,0,0,389.038,383.749Zm0-6.112a6.116,6.116,0,0,0,4.584-5.642l-9.168,2.116A3.53,3.53,0,0,0,389.038,377.637Zm0-177.242a6.116,6.116,0,0,0-4.584,5.642,3.53,3.53,0,0,0,4.584,3.526,6.115,6.115,0,0,0,4.583-5.642A3.529,3.529,0,0,0,389.038,200.4Zm0,15.28a6.114,6.114,0,0,0-4.584,5.642l9.168-2.117A3.529,3.529,0,0,0,389.038,215.675Zm0,55.006a6.118,6.118,0,0,0,4.584-5.643l-9.168,2.117A3.53,3.53,0,0,0,389.038,270.681Zm0,6.112a6.114,6.114,0,0,0-4.584,5.642,3.529,3.529,0,0,0,4.584,3.525,6.117,6.117,0,0,0,4.584-5.642A3.53,3.53,0,0,0,389.038,276.793Zm12.223,93.438-6.111,1.411a3.823,3.823,0,0,0,4.966,3.819,6.624,6.624,0,0,0,4.965-6.112,4.642,4.642,0,0,0-.1-.952A9.47,9.47,0,0,1,401.261,370.231Zm70.6-143.5a5.989,5.989,0,0,0-5.281-1.071,9.667,9.667,0,0,0-5.777,4.212,5.6,5.6,0,0,0-5.3-1.272,9.229,9.229,0,0,0-5.769,4.475,5.2,5.2,0,0,0-5.308-1.536,8.77,8.77,0,0,0-5.756,4.823,4.814,4.814,0,0,0-5.322-1.883,8.285,8.285,0,0,0-5.742,5.36,4.433,4.433,0,0,0-5.335-2.421,7.644,7.644,0,0,0-5.73,7.053,4.413,4.413,0,0,0,5.73,4.407,7.766,7.766,0,0,0,5.335-4.885,4.717,4.717,0,0,0,5.742,2.709,8.24,8.24,0,0,0,5.322-4.34,5.088,5.088,0,0,0,5.756,2.165,8.681,8.681,0,0,0,5.308-3.987,5.466,5.466,0,0,0,5.769,1.811,9.122,9.122,0,0,0,5.3-3.719,5.847,5.847,0,0,0,5.777,1.544,9.539,9.539,0,0,0,5.281-3.509,6.115,6.115,0,0,0,5.254,1.431,56.367,56.367,0,0,0,.543-7.737v-7.64A10.105,10.105,0,0,0,471.862,226.728Zm-60.669,13.627a6.548,6.548,0,0,0-2.292,1.05v9.653a4.929,4.929,0,0,0,2.292-.008,7.135,7.135,0,0,0,5.348-6.582A4.118,4.118,0,0,0,411.193,240.355Zm60.669,62.77a5.989,5.989,0,0,0-5.281-1.07,9.666,9.666,0,0,0-5.777,4.211,5.6,5.6,0,0,0-5.3-1.272,9.229,9.229,0,0,0-5.769,4.475,5.2,5.2,0,0,0-5.308-1.535,8.768,8.768,0,0,0-5.756,4.822,4.814,4.814,0,0,0-5.322-1.883,8.287,8.287,0,0,0-5.742,5.361,4.43,4.43,0,0,0-5.335-2.421,7.642,7.642,0,0,0-5.73,7.052,4.412,4.412,0,0,0,5.73,4.407,7.765,7.765,0,0,0,5.335-4.884,4.718,4.718,0,0,0,5.742,2.709,8.241,8.241,0,0,0,5.322-4.341,5.088,5.088,0,0,0,5.756,2.165,8.683,8.683,0,0,0,5.308-3.986,5.468,5.468,0,0,0,5.769,1.811,9.126,9.126,0,0,0,5.3-3.72,5.847,5.847,0,0,0,5.777,1.544,9.542,9.542,0,0,0,5.281-3.508,6.241,6.241,0,0,0,5.8,1.333v-7.64a51.1,51.1,0,0,0-.543-7.487A10.227,10.227,0,0,0,471.862,303.125Zm-60.669,28.906a6.568,6.568,0,0,0-2.292,1.051v9.653a4.929,4.929,0,0,0,2.292-.008,7.136,7.136,0,0,0,5.348-6.582A4.118,4.118,0,0,0,411.193,332.031Zm-11.077-155.2a6.626,6.626,0,0,0,4.965-6.113l-9.931,2.293A3.824,3.824,0,0,0,400.116,176.829ZM471.862,318.4a5.989,5.989,0,0,0-5.281-1.071,9.663,9.663,0,0,0-5.777,4.212,5.6,5.6,0,0,0-5.3-1.272,9.226,9.226,0,0,0-5.769,4.475,5.2,5.2,0,0,0-5.308-1.536,8.772,8.772,0,0,0-5.756,4.823,4.814,4.814,0,0,0-5.322-1.884,8.286,8.286,0,0,0-5.742,5.361,4.433,4.433,0,0,0-5.336-2.421,7.645,7.645,0,0,0-5.729,7.053,4.413,4.413,0,0,0,5.73,4.407,7.766,7.766,0,0,0,5.335-4.885,4.717,4.717,0,0,0,5.742,2.709,8.24,8.24,0,0,0,5.322-4.34,5.088,5.088,0,0,0,5.756,2.165,8.684,8.684,0,0,0,5.308-3.987,5.467,5.467,0,0,0,5.769,1.811,9.113,9.113,0,0,0,5.3-3.72,5.849,5.849,0,0,0,5.778,1.545,9.544,9.544,0,0,0,5.281-3.509,6.241,6.241,0,0,0,5.8,1.333V314.395A10.105,10.105,0,0,0,471.862,318.4Zm0-122.236a5.985,5.985,0,0,0-5.281-1.07,9.67,9.67,0,0,0-5.778,4.211,5.6,5.6,0,0,0-5.3-1.272,9.232,9.232,0,0,0-5.769,4.475,5.2,5.2,0,0,0-5.308-1.536,8.772,8.772,0,0,0-5.756,4.823,4.812,4.812,0,0,0-5.322-1.883,8.285,8.285,0,0,0-5.742,5.36,4.432,4.432,0,0,0-5.335-2.421,7.644,7.644,0,0,0-5.73,7.053,4.413,4.413,0,0,0,5.73,4.407,7.766,7.766,0,0,0,5.335-4.885,4.718,4.718,0,0,0,5.742,2.71,8.241,8.241,0,0,0,5.322-4.341,5.088,5.088,0,0,0,5.756,2.165,8.681,8.681,0,0,0,5.308-3.987,5.467,5.467,0,0,0,5.769,1.811,9.125,9.125,0,0,0,5.3-3.719,5.849,5.849,0,0,0,5.777,1.544,9.539,9.539,0,0,0,5.281-3.509,6.241,6.241,0,0,0,5.8,1.334,48.327,48.327,0,0,0-2.136-14.478A10.566,10.566,0,0,0,471.862,196.169ZM411.193,209.8a7.135,7.135,0,0,0-5.348,6.582,4.729,4.729,0,0,0,.31,1.708,5.5,5.5,0,0,1,2.023,2.169,4.682,4.682,0,0,0,3.015.236,7.135,7.135,0,0,0,5.348-6.582A4.118,4.118,0,0,0,411.193,209.8Zm0,15.279a6.55,6.55,0,0,0-2.292,1.051v9.652a4.915,4.915,0,0,0,2.292-.007,7.136,7.136,0,0,0,5.348-6.583A4.118,4.118,0,0,0,411.193,225.075Zm60.669-13.627a5.989,5.989,0,0,0-5.281-1.07,9.663,9.663,0,0,0-5.777,4.212,5.6,5.6,0,0,0-5.3-1.273,9.229,9.229,0,0,0-5.769,4.475,5.2,5.2,0,0,0-5.308-1.535,8.77,8.77,0,0,0-5.756,4.823,4.814,4.814,0,0,0-5.322-1.884,8.286,8.286,0,0,0-5.742,5.361,4.433,4.433,0,0,0-5.336-2.421,7.644,7.644,0,0,0-5.729,7.052,4.412,4.412,0,0,0,5.73,4.407,7.765,7.765,0,0,0,5.335-4.884,4.717,4.717,0,0,0,5.742,2.709,8.241,8.241,0,0,0,5.322-4.341,5.089,5.089,0,0,0,5.756,2.166,8.681,8.681,0,0,0,5.308-3.987,5.467,5.467,0,0,0,5.769,1.811,9.123,9.123,0,0,0,5.3-3.72,5.847,5.847,0,0,0,5.777,1.545,9.544,9.544,0,0,0,5.281-3.509,6.241,6.241,0,0,0,5.8,1.333V207.439A10.1,10.1,0,0,0,471.862,211.448Zm-60.669,105.3A6.549,6.549,0,0,0,408.9,317.8v9.652a4.928,4.928,0,0,0,2.292-.007,7.136,7.136,0,0,0,5.348-6.583A4.118,4.118,0,0,0,411.193,316.752Zm0,76.4a7.135,7.135,0,0,0-5.348,6.583,4.118,4.118,0,0,0,5.348,4.113,7.135,7.135,0,0,0,5.348-6.582A4.119,4.119,0,0,0,411.193,393.149ZM460.8,382.664a5.6,5.6,0,0,0-5.3-1.273,9.233,9.233,0,0,0-5.769,4.475,5.2,5.2,0,0,0-5.308-1.535,8.77,8.77,0,0,0-5.756,4.823,4.813,4.813,0,0,0-5.322-1.884,8.287,8.287,0,0,0-5.742,5.361,4.432,4.432,0,0,0-5.335-2.421,7.644,7.644,0,0,0-5.73,7.053,4.413,4.413,0,0,0,5.73,4.407,7.768,7.768,0,0,0,5.335-4.885,4.717,4.717,0,0,0,5.742,2.709,8.238,8.238,0,0,0,5.322-4.341,5.086,5.086,0,0,0,5.756,2.165,8.676,8.676,0,0,0,5.308-3.986,5.1,5.1,0,0,0,3.69,1.969,75.97,75.97,0,0,0,14.283-17.013,7.576,7.576,0,0,0-1.126.164A9.663,9.663,0,0,0,460.8,382.664Zm-49.611,25.765a7.135,7.135,0,0,0-5.348,6.582l10.7-2.469A4.118,4.118,0,0,0,411.193,408.429Zm60.669-74.745a5.989,5.989,0,0,0-5.281-1.071,9.671,9.671,0,0,0-5.777,4.212,5.6,5.6,0,0,0-5.3-1.272,9.229,9.229,0,0,0-5.769,4.475,5.2,5.2,0,0,0-5.308-1.535,8.767,8.767,0,0,0-5.756,4.823,4.812,4.812,0,0,0-5.322-1.884,8.287,8.287,0,0,0-5.742,5.36,4.431,4.431,0,0,0-5.335-2.42,7.642,7.642,0,0,0-5.73,7.052,4.412,4.412,0,0,0,5.73,4.407,7.767,7.767,0,0,0,5.335-4.884,4.719,4.719,0,0,0,5.742,2.709,8.241,8.241,0,0,0,5.322-4.341,5.088,5.088,0,0,0,5.756,2.165,8.683,8.683,0,0,0,5.308-3.986,5.471,5.471,0,0,0,5.77,1.811,9.124,9.124,0,0,0,5.3-3.72,5.847,5.847,0,0,0,5.777,1.544,9.539,9.539,0,0,0,5.281-3.509,6.241,6.241,0,0,0,5.8,1.334v-15.28A10.105,10.105,0,0,0,471.862,333.684ZM438.67,404.433a4.814,4.814,0,0,0-5.322-1.883,8.285,8.285,0,0,0-5.742,5.36,4.432,4.432,0,0,0-5.335-2.421,7.644,7.644,0,0,0-5.73,7.053l7.64-1.764c1.027-.237,2.047-.505,3.06-.8a63.494,63.494,0,0,0,10.967-4.313,69.611,69.611,0,0,0,9.622-5.873,5.778,5.778,0,0,0-3.4-.186A8.773,8.773,0,0,0,438.67,404.433ZM411.193,377.87a7.135,7.135,0,0,0-5.348,6.582,4.118,4.118,0,0,0,5.348,4.113,7.134,7.134,0,0,0,5.348-6.582A4.118,4.118,0,0,0,411.193,377.87Zm0-30.559a6.542,6.542,0,0,0-2.292,1.051v9.652a4.93,4.93,0,0,0,2.292-.008,7.134,7.134,0,0,0,5.348-6.582A4.118,4.118,0,0,0,411.193,347.311Zm60.669,1.653a5.988,5.988,0,0,0-5.281-1.071,9.668,9.668,0,0,0-5.778,4.212,5.6,5.6,0,0,0-5.3-1.272,9.23,9.23,0,0,0-5.769,4.474,5.2,5.2,0,0,0-5.308-1.535,8.772,8.772,0,0,0-5.756,4.823,4.814,4.814,0,0,0-5.322-1.884,8.288,8.288,0,0,0-5.742,5.361,4.432,4.432,0,0,0-5.335-2.421,7.644,7.644,0,0,0-5.73,7.053,4.412,4.412,0,0,0,5.729,4.407,7.77,7.77,0,0,0,5.336-4.885,4.717,4.717,0,0,0,5.742,2.709,8.239,8.239,0,0,0,5.322-4.341,5.085,5.085,0,0,0,5.756,2.165,8.676,8.676,0,0,0,5.308-3.986,5.467,5.467,0,0,0,5.769,1.811,9.119,9.119,0,0,0,5.3-3.72,5.847,5.847,0,0,0,5.777,1.545,9.544,9.544,0,0,0,5.281-3.509,5.8,5.8,0,0,0,3.661,1.518,58.632,58.632,0,0,0,2.136-15.464A10.1,10.1,0,0,0,471.862,348.964Zm0,15.279a5.986,5.986,0,0,0-5.281-1.07,9.665,9.665,0,0,0-5.777,4.211,5.6,5.6,0,0,0-5.3-1.272,9.229,9.229,0,0,0-5.769,4.475,5.2,5.2,0,0,0-5.308-1.536,8.773,8.773,0,0,0-5.756,4.823,4.814,4.814,0,0,0-5.322-1.883,8.287,8.287,0,0,0-5.742,5.36,4.431,4.431,0,0,0-5.335-2.42,7.643,7.643,0,0,0-5.73,7.052,4.412,4.412,0,0,0,5.73,4.407,7.767,7.767,0,0,0,5.335-4.884,4.719,4.719,0,0,0,5.742,2.709,8.244,8.244,0,0,0,5.322-4.341,5.088,5.088,0,0,0,5.756,2.165,8.683,8.683,0,0,0,5.308-3.986,5.466,5.466,0,0,0,5.769,1.81,9.12,9.12,0,0,0,5.3-3.719,5.847,5.847,0,0,0,5.777,1.544,8.491,8.491,0,0,0,1.908-.7q1.218-2.079,2.287-4.225a67.776,67.776,0,0,0,4.546-11.621A10.613,10.613,0,0,0,471.862,364.243Zm-60.669-1.653a6.784,6.784,0,0,0-3.015,1.628,10.6,10.6,0,0,1-2.023,3.1,5.969,5.969,0,0,0-.31,1.851,4.118,4.118,0,0,0,5.348,4.113,7.136,7.136,0,0,0,5.348-6.582A4.119,4.119,0,0,0,411.193,362.59ZM377.96,279.732a5.606,5.606,0,0,0-4.2,5.172,3.236,3.236,0,0,0,4.2,3.232,5.606,5.606,0,0,0,4.2-5.172A3.235,3.235,0,0,0,377.96,279.732ZM355.8,185.53a4.586,4.586,0,0,0,3.438-4.231l-6.876,1.587A2.647,2.647,0,0,0,355.8,185.53Zm11.077,219.377a5.1,5.1,0,0,0-3.819,4.7,2.941,2.941,0,0,0,3.819,2.938,5.1,5.1,0,0,0,3.821-4.7A2.943,2.943,0,0,0,366.882,404.907ZM355.8,224.493a4.586,4.586,0,0,0-3.438,4.232,2.648,2.648,0,0,0,3.438,2.644,4.586,4.586,0,0,0,3.438-4.232A2.647,2.647,0,0,0,355.8,224.493Zm0-15.279a4.586,4.586,0,0,0-3.438,4.231,2.647,2.647,0,0,0,3.438,2.644,4.586,4.586,0,0,0,3.438-4.231A2.647,2.647,0,0,0,355.8,209.214Zm0-15.28a4.587,4.587,0,0,0-3.438,4.232,2.648,2.648,0,0,0,3.438,2.644,4.588,4.588,0,0,0,3.438-4.232A2.648,2.648,0,0,0,355.8,193.934Zm11.078,226.253a5.1,5.1,0,0,0-3.82,4.7l7.639-1.763A2.941,2.941,0,0,0,366.883,420.187Zm0-76.4a5.1,5.1,0,0,0-3.819,4.7,2.941,2.941,0,0,0,3.82,2.938,5.1,5.1,0,0,0,3.819-4.7A2.942,2.942,0,0,0,366.882,343.789Zm0,15.28a5.1,5.1,0,0,0-3.82,4.7,2.941,2.941,0,0,0,3.82,2.937,5.1,5.1,0,0,0,3.82-4.7A2.942,2.942,0,0,0,366.883,359.069Zm0,30.559a5.1,5.1,0,0,0-3.819,4.7,2.941,2.941,0,0,0,3.819,2.937,5.1,5.1,0,0,0,3.82-4.7A2.941,2.941,0,0,0,366.882,389.628Zm0-15.28a5.1,5.1,0,0,0-3.82,4.7,2.941,2.941,0,0,0,3.819,2.938,5.1,5.1,0,0,0,3.82-4.7A2.941,2.941,0,0,0,366.883,374.348ZM355.8,362.008a4.586,4.586,0,0,0-3.438,4.232,2.648,2.648,0,0,0,3.438,2.644,4.586,4.586,0,0,0,3.438-4.231A2.648,2.648,0,0,0,355.8,362.008Zm0-15.279a4.586,4.586,0,0,0-3.438,4.231,2.648,2.648,0,0,0,3.438,2.645,4.587,4.587,0,0,0,3.438-4.232A2.647,2.647,0,0,0,355.8,346.729Zm0-15.28a4.586,4.586,0,0,0-3.438,4.232,2.647,2.647,0,0,0,3.438,2.644,4.586,4.586,0,0,0,3.438-4.232A2.648,2.648,0,0,0,355.8,331.449Zm0-15.279a4.586,4.586,0,0,0-3.438,4.231,2.648,2.648,0,0,0,3.438,2.645,4.587,4.587,0,0,0,3.438-4.232A2.647,2.647,0,0,0,355.8,316.17Zm0,61.118a4.586,4.586,0,0,0-3.438,4.231,2.647,2.647,0,0,0,3.438,2.644,4.585,4.585,0,0,0,3.438-4.231A2.647,2.647,0,0,0,355.8,377.288Zm0-137.516A4.587,4.587,0,0,0,352.367,244a2.647,2.647,0,0,0,3.438,2.644,4.586,4.586,0,0,0,3.438-4.231A2.648,2.648,0,0,0,355.8,239.772Zm11.078,88.738a5.1,5.1,0,0,0-3.82,4.7,2.94,2.94,0,0,0,3.819,2.937,5.1,5.1,0,0,0,3.82-4.7A2.941,2.941,0,0,0,366.883,328.51ZM355.8,255.052a4.588,4.588,0,0,0-3.438,4.232,2.648,2.648,0,0,0,3.438,2.644,4.587,4.587,0,0,0,3.438-4.232A2.647,2.647,0,0,0,355.8,255.052Zm0,15.279a4.588,4.588,0,0,0-3.438,4.232,2.647,2.647,0,0,0,3.438,2.644,4.586,4.586,0,0,0,3.438-4.231A2.648,2.648,0,0,0,355.8,270.331Zm0,30.559a4.587,4.587,0,0,0-3.438,4.232,2.647,2.647,0,0,0,3.438,2.644,4.586,4.586,0,0,0,3.438-4.231A2.648,2.648,0,0,0,355.8,300.89Zm0-15.279a4.586,4.586,0,0,0-3.438,4.231,2.648,2.648,0,0,0,3.438,2.645,4.587,4.587,0,0,0,3.438-4.232A2.647,2.647,0,0,0,355.8,285.611Zm22.155,24.68a5.607,5.607,0,0,0-4.2,5.172,3.236,3.236,0,0,0,4.2,3.232c.129-.03.256-.067.382-.108V314.4l3.82-.882A3.235,3.235,0,0,0,377.96,310.291Zm0-15.28a5.608,5.608,0,0,0-4.2,5.173,3.236,3.236,0,0,0,4.2,3.231,5.6,5.6,0,0,0,4.2-5.172A3.236,3.236,0,0,0,377.96,295.011Zm0-113.832a5.6,5.6,0,0,0,4.2-5.172l-8.4,1.941A3.235,3.235,0,0,0,377.96,181.179Zm.382,190.161c-.126.018-.253.039-.382.069a5.6,5.6,0,0,0-4.2,5.172,3.236,3.236,0,0,0,4.2,3.232,5.607,5.607,0,0,0,4.2-5.172l-3.82.882Zm-.382,15.348a5.606,5.606,0,0,0-4.2,5.172,3.235,3.235,0,0,0,4.2,3.232,5.606,5.606,0,0,0,4.2-5.172A3.236,3.236,0,0,0,377.96,386.688ZM355.8,392.567a4.586,4.586,0,0,0-3.438,4.232,2.648,2.648,0,0,0,3.438,2.644,4.587,4.587,0,0,0,3.438-4.232A2.648,2.648,0,0,0,355.8,392.567ZM377.96,218.614a5.607,5.607,0,0,0-4.2,5.172,3.236,3.236,0,0,0,4.2,3.232c.129-.03.256-.067.382-.108v-4.182l3.82-.882A3.235,3.235,0,0,0,377.96,218.614Zm0-30.559a5.606,5.606,0,0,0-4.2,5.172,3.236,3.236,0,0,0,4.2,3.232,5.606,5.606,0,0,0,4.2-5.172A3.235,3.235,0,0,0,377.96,188.055Zm0,15.28a5.606,5.606,0,0,0-4.2,5.172,3.235,3.235,0,0,0,4.2,3.231,5.6,5.6,0,0,0,4.2-5.172A3.235,3.235,0,0,0,377.96,203.335Zm.382,61.048c-.126.018-.253.04-.382.07a5.6,5.6,0,0,0-4.2,5.172,3.235,3.235,0,0,0,4.2,3.231,5.606,5.606,0,0,0,4.2-5.172l-3.82.882Zm-.382,137.585a5.606,5.606,0,0,0-4.2,5.172,3.236,3.236,0,0,0,4.2,3.231,5.6,5.6,0,0,0,4.2-5.171A3.235,3.235,0,0,0,377.96,401.968ZM366.882,252.112a5.1,5.1,0,0,0-3.819,4.7,2.941,2.941,0,0,0,3.82,2.938,5.1,5.1,0,0,0,3.82-4.7A2.943,2.943,0,0,0,366.882,252.112Zm0,15.28a5.1,5.1,0,0,0-3.82,4.7,2.941,2.941,0,0,0,3.819,2.938,5.1,5.1,0,0,0,3.82-4.7A2.941,2.941,0,0,0,366.883,267.392Zm0,45.838a5.1,5.1,0,0,0-3.819,4.7,2.941,2.941,0,0,0,3.819,2.938,5.1,5.1,0,0,0,3.821-4.7A2.943,2.943,0,0,0,366.882,313.23Zm0-15.279a5.1,5.1,0,0,0-3.82,4.7,2.942,2.942,0,0,0,3.82,2.938,5.1,5.1,0,0,0,3.82-4.7A2.942,2.942,0,0,0,366.883,297.951Zm0-61.118a5.1,5.1,0,0,0-3.82,4.7,2.942,2.942,0,0,0,3.82,2.938,5.1,5.1,0,0,0,3.819-4.7A2.941,2.941,0,0,0,366.883,236.833Zm0,45.838a5.1,5.1,0,0,0-3.82,4.7,2.941,2.941,0,0,0,3.82,2.938,5.1,5.1,0,0,0,3.819-4.7A2.941,2.941,0,0,0,366.883,282.671Zm0-76.4a5.1,5.1,0,0,0-3.82,4.7,2.941,2.941,0,0,0,3.82,2.938,5.1,5.1,0,0,0,3.819-4.7A2.941,2.941,0,0,0,366.883,206.274Zm0-15.279a5.1,5.1,0,0,0-3.819,4.7,2.941,2.941,0,0,0,3.82,2.938,5.1,5.1,0,0,0,3.82-4.7A2.942,2.942,0,0,0,366.882,190.995Zm0,30.559a5.1,5.1,0,0,0-3.82,4.7,2.94,2.94,0,0,0,3.819,2.938,5.1,5.1,0,0,0,3.82-4.7A2.941,2.941,0,0,0,366.883,221.554Zm0-38.2a5.1,5.1,0,0,0,3.82-4.7l-7.639,1.764A2.941,2.941,0,0,0,366.882,183.355ZM377.96,417.247a5.607,5.607,0,0,0-4.2,5.172l8.4-1.94A3.235,3.235,0,0,0,377.96,417.247Z" fill="#166cdb"/>
    </g>
    <g id="Group_29" data-name="Group 29">
      <path id="Path_42" data-name="Path 42" d="M177.209,357.53a3.566,3.566,0,0,0-2.674,3.291,2.059,2.059,0,0,0,2.674,2.056,3.567,3.567,0,0,0,2.673-3.291A2.058,2.058,0,0,0,177.209,357.53Zm0-30.559a3.567,3.567,0,0,0-2.674,3.291,2.059,2.059,0,0,0,2.674,2.056,3.566,3.566,0,0,0,2.673-3.291A2.058,2.058,0,0,0,177.209,326.971Zm0,15.279a3.567,3.567,0,0,0-2.674,3.291,2.059,2.059,0,0,0,2.674,2.057,3.568,3.568,0,0,0,2.673-3.291A2.058,2.058,0,0,0,177.209,342.25Zm0,30.559a3.567,3.567,0,0,0-2.674,3.291,2.059,2.059,0,0,0,2.674,2.057,3.569,3.569,0,0,0,2.674-3.292A2.06,2.06,0,0,0,177.209,372.809Zm0,15.28a3.567,3.567,0,0,0-2.674,3.291,2.059,2.059,0,0,0,2.674,2.056,3.567,3.567,0,0,0,2.673-3.291A2.057,2.057,0,0,0,177.209,388.089Zm0-122.236a3.567,3.567,0,0,0-2.674,3.291,2.059,2.059,0,0,0,2.674,2.056,3.566,3.566,0,0,0,2.674-3.291A2.059,2.059,0,0,0,177.209,265.853Zm0,15.279a3.567,3.567,0,0,0-2.674,3.291,2.059,2.059,0,0,0,2.674,2.057,3.566,3.566,0,0,0,2.673-3.291A2.058,2.058,0,0,0,177.209,281.132Zm0,15.28a3.567,3.567,0,0,0-2.674,3.291,2.059,2.059,0,0,0,2.674,2.056,3.567,3.567,0,0,0,2.673-3.291A2.058,2.058,0,0,0,177.209,296.412Zm0,15.279a3.568,3.568,0,0,0-2.674,3.291,2.059,2.059,0,0,0,2.674,2.057,3.566,3.566,0,0,0,2.673-3.291A2.059,2.059,0,0,0,177.209,311.691Zm-11.078-58.178a3.057,3.057,0,0,0-2.292,2.821,1.765,1.765,0,0,0,2.292,1.763,3.059,3.059,0,0,0,2.292-2.822A1.764,1.764,0,0,0,166.131,253.513Zm11.078,195.693a3.568,3.568,0,0,0-2.674,3.292,2.059,2.059,0,0,0,2.674,2.056,3.567,3.567,0,0,0,2.673-3.291A2.058,2.058,0,0,0,177.209,449.206ZM166.131,238.233a3.058,3.058,0,0,0-2.292,2.821,1.765,1.765,0,0,0,2.292,1.763A3.057,3.057,0,0,0,168.423,240,1.765,1.765,0,0,0,166.131,238.233Zm11.078,165.135a3.567,3.567,0,0,0-2.674,3.291,2.059,2.059,0,0,0,2.674,2.057,3.567,3.567,0,0,0,2.673-3.291A2.058,2.058,0,0,0,177.209,403.368ZM166.131,268.792a3.059,3.059,0,0,0-2.292,2.821,1.765,1.765,0,0,0,2.292,1.763,3.057,3.057,0,0,0,2.292-2.821A1.765,1.765,0,0,0,166.131,268.792Zm0-41.254a3.059,3.059,0,0,0,2.292-2.822l-4.584,1.059A1.765,1.765,0,0,0,166.131,227.538Zm11.078,191.109a3.568,3.568,0,0,0-2.674,3.291,2.059,2.059,0,0,0,2.674,2.057,3.569,3.569,0,0,0,2.674-3.291A2.06,2.06,0,0,0,177.209,418.647Zm0,15.28a3.567,3.567,0,0,0-2.674,3.291,2.059,2.059,0,0,0,2.674,2.057,3.57,3.57,0,0,0,2.674-3.292A2.059,2.059,0,0,0,177.209,433.927Zm0-183.354a3.568,3.568,0,0,0-2.674,3.291,2.059,2.059,0,0,0,2.674,2.057,3.565,3.565,0,0,0,2.673-3.291A2.059,2.059,0,0,0,177.209,250.573Zm11.077,180.415a4.077,4.077,0,0,0-3.056,3.761,2.353,2.353,0,0,0,3.056,2.35,4.077,4.077,0,0,0,3.056-3.761A2.353,2.353,0,0,0,188.286,430.988ZM177.209,235.294a3.567,3.567,0,0,0-2.674,3.291,2.059,2.059,0,0,0,2.674,2.057,3.567,3.567,0,0,0,2.673-3.292A2.058,2.058,0,0,0,177.209,235.294Zm11.077,27.619a4.079,4.079,0,0,0-3.056,3.762,2.354,2.354,0,0,0,3.057,2.35,4.078,4.078,0,0,0,3.055-3.761A2.354,2.354,0,0,0,188.286,262.913Zm0,15.28a4.076,4.076,0,0,0-3.056,3.761,2.353,2.353,0,0,0,3.056,2.35,4.075,4.075,0,0,0,3.056-3.761A2.353,2.353,0,0,0,188.286,278.193Zm0,30.559a4.077,4.077,0,0,0-3.056,3.761,2.353,2.353,0,0,0,3.056,2.35,4.076,4.076,0,0,0,3.056-3.761A2.353,2.353,0,0,0,188.286,308.752Zm0-76.4a4.079,4.079,0,0,0-3.056,3.762,2.353,2.353,0,0,0,3.056,2.35,4.076,4.076,0,0,0,3.056-3.761A2.354,2.354,0,0,0,188.286,232.354Zm11.078,226.253a4.662,4.662,0,0,0-3.275,3.15,52.528,52.528,0,0,0,6.706-.643A2.639,2.639,0,0,0,199.364,458.607ZM188.286,247.634a4.078,4.078,0,0,0-3.056,3.761,2.354,2.354,0,0,0,3.056,2.351,4.078,4.078,0,0,0,3.056-3.762A2.353,2.353,0,0,0,188.286,247.634Zm0-24.448a4.076,4.076,0,0,0,3.056-3.761l-6.112,1.411A2.353,2.353,0,0,0,188.286,223.186Zm0,100.845a4.077,4.077,0,0,0-3.055,3.762,2.352,2.352,0,0,0,3.055,2.35,4.077,4.077,0,0,0,3.056-3.761A2.353,2.353,0,0,0,188.286,324.031Zm0-30.559a4.079,4.079,0,0,0-3.056,3.762,2.353,2.353,0,0,0,3.056,2.35,4.077,4.077,0,0,0,3.056-3.761A2.354,2.354,0,0,0,188.286,293.472Zm0,122.236a4.078,4.078,0,0,0-3.056,3.761,2.354,2.354,0,0,0,3.056,2.351,4.078,4.078,0,0,0,3.056-3.762A2.353,2.353,0,0,0,188.286,415.708Zm0,30.559a4.079,4.079,0,0,0-3.056,3.761,2.354,2.354,0,0,0,3.056,2.351,4.078,4.078,0,0,0,3.056-3.762A2.353,2.353,0,0,0,188.286,446.267Zm-22.155-162.2a3.057,3.057,0,0,0-2.292,2.821,1.764,1.764,0,0,0,2.292,1.762,3.057,3.057,0,0,0,2.292-2.821A1.765,1.765,0,0,0,166.131,284.072Zm11.078-58.71a3.565,3.565,0,0,0,2.673-3.291l-5.347,1.235A2.059,2.059,0,0,0,177.209,225.362Zm11.077,159.787a4.077,4.077,0,0,0-3.056,3.761,2.354,2.354,0,0,0,3.056,2.351,4.078,4.078,0,0,0,3.056-3.762A2.353,2.353,0,0,0,188.286,385.149Zm0-30.559a4.079,4.079,0,0,0-3.056,3.761,2.354,2.354,0,0,0,3.056,2.351,4.077,4.077,0,0,0,3.056-3.761A2.354,2.354,0,0,0,188.286,354.59Zm0,15.28a4.077,4.077,0,0,0-3.056,3.761,2.353,2.353,0,0,0,3.056,2.35,4.076,4.076,0,0,0,3.056-3.761A2.353,2.353,0,0,0,188.286,369.87Zm0,30.559a4.077,4.077,0,0,0-3.056,3.761,2.353,2.353,0,0,0,3.056,2.35,4.076,4.076,0,0,0,3.056-3.761A2.353,2.353,0,0,0,188.286,400.429Zm0-61.118a4.077,4.077,0,0,0-3.056,3.761,2.353,2.353,0,0,0,3.056,2.35,4.076,4.076,0,0,0,3.056-3.761A2.353,2.353,0,0,0,188.286,339.311Zm33.233-46.254c.129-.029.256-.066.382-.107v-8.365c-.126.018-.253.039-.382.069a5.606,5.606,0,0,0-4.2,5.172A3.235,3.235,0,0,0,221.519,293.057Zm0,91.677c.129-.03.256-.067.382-.107v-8.365c-.126.017-.253.039-.382.069a5.6,5.6,0,0,0-4.2,5.172A3.234,3.234,0,0,0,221.519,384.734Zm0,15.28c.129-.03.256-.067.382-.108v-8.365c-.126.018-.253.039-.382.069a5.608,5.608,0,0,0-4.2,5.172A3.236,3.236,0,0,0,221.519,400.014Zm-66.465,24.512a2.543,2.543,0,0,0-1.516,1.109q.165,1.32.4,2.6a1.647,1.647,0,0,0,1.119.11,2.548,2.548,0,0,0,1.909-2.351A1.471,1.471,0,0,0,155.054,424.526Zm66.465-55.071c.129-.03.256-.067.382-.108v-8.365c-.126.018-.253.039-.382.069a5.607,5.607,0,0,0-4.2,5.172A3.236,3.236,0,0,0,221.519,369.455Zm-66.465-6.047a2.552,2.552,0,0,0-1.911,2.351,1.472,1.472,0,0,0,1.911,1.469,2.548,2.548,0,0,0,1.909-2.351A1.47,1.47,0,0,0,155.054,363.408Zm66.465-9.233c.129-.029.256-.067.382-.107V345.7c-.126.018-.253.039-.382.069a5.607,5.607,0,0,0-4.2,5.172A3.235,3.235,0,0,0,221.519,354.175Zm-66.465,24.513a2.55,2.55,0,0,0-1.911,2.351,1.472,1.472,0,0,0,1.911,1.469,2.549,2.549,0,0,0,1.909-2.351A1.47,1.47,0,0,0,155.054,378.688Zm0,30.559a2.548,2.548,0,0,0-1.911,2.351,1.472,1.472,0,0,0,1.911,1.469,2.549,2.549,0,0,0,1.909-2.351A1.47,1.47,0,0,0,155.054,409.247Zm0-15.28a2.548,2.548,0,0,0-1.91,2.351,1.47,1.47,0,0,0,1.91,1.469,2.549,2.549,0,0,0,1.91-2.351A1.472,1.472,0,0,0,155.054,393.967Zm0-45.838a2.548,2.548,0,0,0-1.91,2.351,1.471,1.471,0,0,0,1.91,1.469,2.55,2.55,0,0,0,1.91-2.351A1.471,1.471,0,0,0,155.054,348.129ZM221.519,262.5c.129-.029.256-.066.382-.107v-8.365c-.126.018-.253.039-.382.069a5.607,5.607,0,0,0-4.2,5.172A3.235,3.235,0,0,0,221.519,262.5Zm0-30.558c.129-.03.256-.067.382-.108v-8.365c-.126.018-.253.039-.382.069a5.606,5.606,0,0,0-4.2,5.172A3.236,3.236,0,0,0,221.519,231.94Zm0,15.279c.129-.03.256-.067.382-.107v-8.365c-.126.018-.253.039-.382.068a5.608,5.608,0,0,0-4.2,5.172A3.235,3.235,0,0,0,221.519,247.219Zm0-30.559c.129-.029.256-.067.382-.107V212.37l-4.584,1.058A3.236,3.236,0,0,0,221.519,216.66Zm0,91.677c.129-.03.256-.067.382-.108v-8.365c-.126.018-.253.039-.382.069a5.608,5.608,0,0,0-4.2,5.172A3.235,3.235,0,0,0,221.519,308.337Zm0,30.559c.129-.03.256-.067.382-.107v-8.366c-.126.018-.253.04-.382.069a5.608,5.608,0,0,0-4.2,5.172A3.236,3.236,0,0,0,221.519,338.9Zm0-15.28c.129-.029.256-.066.382-.107v-8.365c-.126.018-.253.039-.382.069a5.6,5.6,0,0,0-4.2,5.172A3.234,3.234,0,0,0,221.519,323.616ZM199.364,443.327a4.587,4.587,0,0,0-3.438,4.232,2.647,2.647,0,0,0,3.438,2.644,4.587,4.587,0,0,0,3.438-4.231A2.648,2.648,0,0,0,199.364,443.327Zm22.155-165.549c.129-.03.256-.067.382-.107V269.3c-.126.018-.253.04-.382.07a5.6,5.6,0,0,0-4.2,5.171A3.236,3.236,0,0,0,221.519,277.778Zm-66.465,9.233a2.549,2.549,0,0,0-1.911,2.351,1.472,1.472,0,0,0,1.911,1.469,2.549,2.549,0,0,0,1.91-2.351A1.471,1.471,0,0,0,155.054,287.011Zm11.077,104.017a3.057,3.057,0,0,0-2.292,2.821,1.765,1.765,0,0,0,2.292,1.763,3.058,3.058,0,0,0,2.292-2.821A1.765,1.765,0,0,0,166.131,391.028Zm0,15.279a3.059,3.059,0,0,0-2.292,2.821,1.765,1.765,0,0,0,2.292,1.763,3.057,3.057,0,0,0,2.292-2.821A1.765,1.765,0,0,0,166.131,406.307Zm0-30.558a3.057,3.057,0,0,0-2.292,2.82,1.765,1.765,0,0,0,2.292,1.763,3.057,3.057,0,0,0,2.292-2.821A1.764,1.764,0,0,0,166.131,375.749Zm0,45.838a3.057,3.057,0,0,0-2.292,2.821,1.765,1.765,0,0,0,2.292,1.763,3.059,3.059,0,0,0,2.292-2.821A1.765,1.765,0,0,0,166.131,421.587Zm0-76.4a3.057,3.057,0,0,0-2.292,2.82,1.765,1.765,0,0,0,2.292,1.763,3.057,3.057,0,0,0,2.292-2.821A1.764,1.764,0,0,0,166.131,345.19Zm0-30.559a3.057,3.057,0,0,0-2.292,2.821,1.765,1.765,0,0,0,2.292,1.763,3.059,3.059,0,0,0,2.292-2.822A1.765,1.765,0,0,0,166.131,314.631Zm0,45.838a3.057,3.057,0,0,0-2.292,2.821,1.765,1.765,0,0,0,2.292,1.763,3.058,3.058,0,0,0,2.292-2.821A1.765,1.765,0,0,0,166.131,360.469Zm0-30.559a3.057,3.057,0,0,0-2.292,2.821,1.765,1.765,0,0,0,2.292,1.763,3.057,3.057,0,0,0,2.292-2.821A1.765,1.765,0,0,0,166.131,329.91Zm0,106.956a3.059,3.059,0,0,0-2.292,2.821,1.765,1.765,0,0,0,2.292,1.763,3.057,3.057,0,0,0,2.292-2.821A1.765,1.765,0,0,0,166.131,436.866ZM155.054,271.731a2.55,2.55,0,0,0-1.91,2.352,1.47,1.47,0,0,0,1.91,1.468,2.547,2.547,0,0,0,1.909-2.35A1.471,1.471,0,0,0,155.054,271.731Zm0,30.56a2.548,2.548,0,0,0-1.91,2.351,1.47,1.47,0,0,0,1.91,1.468,2.547,2.547,0,0,0,1.909-2.351A1.47,1.47,0,0,0,155.054,302.291Zm12.3,149.928q.392.333.79.655A1.643,1.643,0,0,0,167.352,452.219Zm-1.221-152.868a3.058,3.058,0,0,0-2.292,2.821,1.765,1.765,0,0,0,2.292,1.763,3.057,3.057,0,0,0,2.292-2.821A1.765,1.765,0,0,0,166.131,299.351ZM155.054,317.57a2.548,2.548,0,0,0-1.911,2.351,1.472,1.472,0,0,0,1.911,1.469,2.547,2.547,0,0,0,1.909-2.351A1.47,1.47,0,0,0,155.054,317.57Zm0,15.28a2.546,2.546,0,0,0-1.91,2.35,1.47,1.47,0,0,0,1.91,1.469,2.55,2.55,0,0,0,1.91-2.351A1.471,1.471,0,0,0,155.054,332.85Zm0-76.4a2.547,2.547,0,0,0-1.91,2.351,1.471,1.471,0,0,0,1.91,1.469,2.548,2.548,0,0,0,1.909-2.351A1.47,1.47,0,0,0,155.054,256.452Zm0-26.739a2.547,2.547,0,0,0,1.909-2.351l-3.82.882A1.472,1.472,0,0,0,155.054,229.713Zm0,11.46a2.547,2.547,0,0,0-1.91,2.351,1.471,1.471,0,0,0,1.91,1.469,2.551,2.551,0,0,0,1.91-2.351A1.471,1.471,0,0,0,155.054,241.173Zm99.7,187.457a7.135,7.135,0,0,0-5.348,6.583,4.118,4.118,0,0,0,5.348,4.113,7.135,7.135,0,0,0,5.348-6.583A4.118,4.118,0,0,0,254.752,428.63Zm0-30.559a6.784,6.784,0,0,0-3.015,1.628,10.566,10.566,0,0,1-2.023,3.1,5.98,5.98,0,0,0-.31,1.852,4.118,4.118,0,0,0,5.348,4.113,7.136,7.136,0,0,0,5.348-6.583A4.118,4.118,0,0,0,254.752,398.071Zm60.669-28.906a5.989,5.989,0,0,0-5.281-1.071,9.667,9.667,0,0,0-5.777,4.212,5.6,5.6,0,0,0-5.3-1.272,9.228,9.228,0,0,0-5.77,4.475,5.2,5.2,0,0,0-5.308-1.536,8.775,8.775,0,0,0-5.756,4.823,4.814,4.814,0,0,0-5.322-1.883,8.283,8.283,0,0,0-5.742,5.36,4.433,4.433,0,0,0-5.335-2.421,7.644,7.644,0,0,0-5.73,7.053,4.412,4.412,0,0,0,5.73,4.407,7.764,7.764,0,0,0,5.335-4.885,4.717,4.717,0,0,0,5.742,2.709,8.24,8.24,0,0,0,5.322-4.34,5.089,5.089,0,0,0,5.756,2.165,8.681,8.681,0,0,0,5.308-3.987,5.467,5.467,0,0,0,5.77,1.811,9.125,9.125,0,0,0,5.3-3.719,5.847,5.847,0,0,0,5.777,1.544,9.535,9.535,0,0,0,5.281-3.509,6.238,6.238,0,0,0,5.8,1.333V365.155A10.105,10.105,0,0,0,315.421,369.165Zm-60.669,13.627a6.524,6.524,0,0,0-2.292,1.051v9.652a4.929,4.929,0,0,0,2.292-.008A7.135,7.135,0,0,0,260.1,386.9,4.118,4.118,0,0,0,254.752,382.792Zm60.669,1.652a5.992,5.992,0,0,0-5.281-1.07,9.663,9.663,0,0,0-5.777,4.212,5.6,5.6,0,0,0-5.3-1.272,9.23,9.23,0,0,0-5.77,4.474,5.2,5.2,0,0,0-5.308-1.535,8.77,8.77,0,0,0-5.756,4.823,4.812,4.812,0,0,0-5.322-1.884,8.286,8.286,0,0,0-5.742,5.361,4.431,4.431,0,0,0-5.335-2.421,7.643,7.643,0,0,0-5.73,7.052,4.412,4.412,0,0,0,5.73,4.407,7.765,7.765,0,0,0,5.335-4.884,4.718,4.718,0,0,0,5.742,2.709,8.238,8.238,0,0,0,5.322-4.341,5.089,5.089,0,0,0,5.756,2.165,8.68,8.68,0,0,0,5.308-3.986,5.468,5.468,0,0,0,5.77,1.811,9.124,9.124,0,0,0,5.3-3.72,5.847,5.847,0,0,0,5.777,1.544,9.539,9.539,0,0,0,5.281-3.509,5.787,5.787,0,0,0,3.661,1.518,58.627,58.627,0,0,0,2.136-15.464A10.11,10.11,0,0,0,315.421,384.444Zm-60.669-16.932a6.568,6.568,0,0,0-2.292,1.051v9.652a4.915,4.915,0,0,0,2.292-.007,7.135,7.135,0,0,0,5.348-6.583A4.118,4.118,0,0,0,254.752,367.512Zm60.669-28.906a5.989,5.989,0,0,0-5.281-1.071,9.667,9.667,0,0,0-5.777,4.212,5.6,5.6,0,0,0-5.3-1.272,9.231,9.231,0,0,0-5.77,4.475,5.2,5.2,0,0,0-5.308-1.536,8.772,8.772,0,0,0-5.756,4.823,4.813,4.813,0,0,0-5.322-1.883,8.287,8.287,0,0,0-5.742,5.36,4.432,4.432,0,0,0-5.335-2.421,7.644,7.644,0,0,0-5.73,7.053,4.413,4.413,0,0,0,5.73,4.407,7.766,7.766,0,0,0,5.335-4.885,4.717,4.717,0,0,0,5.742,2.709,8.24,8.24,0,0,0,5.322-4.34,5.088,5.088,0,0,0,5.756,2.165,8.683,8.683,0,0,0,5.308-3.986,5.468,5.468,0,0,0,5.769,1.81,9.125,9.125,0,0,0,5.3-3.719,5.847,5.847,0,0,0,5.777,1.544,9.539,9.539,0,0,0,5.281-3.509,6.241,6.241,0,0,0,5.8,1.334V334.6A10.105,10.105,0,0,0,315.421,338.606Zm-60.669-1.653A6.559,6.559,0,0,0,252.46,338v9.653a4.93,4.93,0,0,0,2.292-.008,7.136,7.136,0,0,0,5.348-6.583A4.118,4.118,0,0,0,254.752,336.953Zm0,15.28a6.524,6.524,0,0,0-2.292,1.051v9.652a4.916,4.916,0,0,0,2.292-.008,7.135,7.135,0,0,0,5.348-6.582A4.118,4.118,0,0,0,254.752,352.233Zm-26.731,57.2c0,.051-.008.1-.008.154a3.53,3.53,0,0,0,4.584,3.526,6.116,6.116,0,0,0,4.584-5.642l-7.64,1.763A7.681,7.681,0,0,1,228.021,409.438Zm87.4-9.714a5.989,5.989,0,0,0-5.281-1.071,9.663,9.663,0,0,0-5.777,4.212,5.6,5.6,0,0,0-5.3-1.272,9.231,9.231,0,0,0-5.77,4.475,5.2,5.2,0,0,0-5.308-1.536,8.775,8.775,0,0,0-5.756,4.823,4.814,4.814,0,0,0-5.322-1.883,8.285,8.285,0,0,0-5.742,5.36,4.433,4.433,0,0,0-5.335-2.421,7.644,7.644,0,0,0-5.73,7.053,4.413,4.413,0,0,0,5.73,4.407,7.764,7.764,0,0,0,5.335-4.885,4.717,4.717,0,0,0,5.742,2.709,8.239,8.239,0,0,0,5.322-4.341,5.087,5.087,0,0,0,5.756,2.166,8.683,8.683,0,0,0,5.308-3.986,5.469,5.469,0,0,0,5.77,1.81,9.122,9.122,0,0,0,5.3-3.719,5.849,5.849,0,0,0,5.777,1.544,8.5,8.5,0,0,0,1.908-.7q1.218-2.078,2.287-4.224a67.809,67.809,0,0,0,4.546-11.621A10.613,10.613,0,0,0,315.421,399.724ZM243.675,416.29a6.625,6.625,0,0,0-4.966,6.112,3.824,3.824,0,0,0,4.965,3.82,6.627,6.627,0,0,0,4.967-6.113A3.825,3.825,0,0,0,243.675,416.29Zm0,15.28a6.626,6.626,0,0,0-4.967,6.112,3.824,3.824,0,0,0,4.966,3.819,6.624,6.624,0,0,0,4.966-6.112A3.823,3.823,0,0,0,243.675,431.57Zm0,15.279a6.625,6.625,0,0,0-4.966,6.112l9.931-2.292A3.824,3.824,0,0,0,243.675,446.849Zm1.145-41.137-6.111,1.411a3.823,3.823,0,0,0,4.965,3.819,6.623,6.623,0,0,0,4.966-6.112,4.634,4.634,0,0,0-.1-.952A9.47,9.47,0,0,1,244.82,405.712Zm9.932,38.2a7.135,7.135,0,0,0-5.348,6.583l10.7-2.469A4.119,4.119,0,0,0,254.752,443.909Zm60.669-120.583a5.992,5.992,0,0,0-5.281-1.07,9.663,9.663,0,0,0-5.777,4.212,5.6,5.6,0,0,0-5.3-1.272,9.225,9.225,0,0,0-5.77,4.475,5.2,5.2,0,0,0-5.308-1.536,8.772,8.772,0,0,0-5.756,4.823,4.814,4.814,0,0,0-5.322-1.884,8.286,8.286,0,0,0-5.742,5.361,4.432,4.432,0,0,0-5.335-2.421,7.644,7.644,0,0,0-5.73,7.052,4.411,4.411,0,0,0,5.729,4.407,7.762,7.762,0,0,0,5.336-4.884,4.717,4.717,0,0,0,5.742,2.709,8.239,8.239,0,0,0,5.322-4.341,5.089,5.089,0,0,0,5.756,2.166,8.685,8.685,0,0,0,5.308-3.987,5.468,5.468,0,0,0,5.77,1.811,9.12,9.12,0,0,0,5.3-3.72,5.847,5.847,0,0,0,5.777,1.545,9.544,9.544,0,0,0,5.281-3.509,6.241,6.241,0,0,0,5.8,1.333V319.317A10.1,10.1,0,0,0,315.421,323.326Zm-11.058,94.819a5.6,5.6,0,0,0-5.3-1.273,9.232,9.232,0,0,0-5.769,4.475,5.2,5.2,0,0,0-5.308-1.535,8.772,8.772,0,0,0-5.756,4.823,4.812,4.812,0,0,0-5.322-1.884,8.286,8.286,0,0,0-5.742,5.361,4.43,4.43,0,0,0-5.335-2.421,7.643,7.643,0,0,0-5.73,7.052,4.412,4.412,0,0,0,5.73,4.407,7.765,7.765,0,0,0,5.335-4.884,4.719,4.719,0,0,0,5.742,2.709,8.242,8.242,0,0,0,5.322-4.341,5.088,5.088,0,0,0,5.756,2.165,8.683,8.683,0,0,0,5.308-3.986,5.1,5.1,0,0,0,3.69,1.969,75.97,75.97,0,0,0,14.283-17.013,7.313,7.313,0,0,0-1.126.164A9.663,9.663,0,0,0,304.363,418.145Zm-49.611-4.794a7.135,7.135,0,0,0-5.348,6.582,4.118,4.118,0,0,0,5.348,4.113,7.135,7.135,0,0,0,5.348-6.582A4.118,4.118,0,0,0,254.752,413.351Zm27.477,26.563a4.812,4.812,0,0,0-5.322-1.883,8.283,8.283,0,0,0-5.742,5.36,4.433,4.433,0,0,0-5.336-2.421,7.645,7.645,0,0,0-5.729,7.053l7.64-1.764c1.027-.237,2.047-.505,3.06-.8a63.462,63.462,0,0,0,10.967-4.313,69.711,69.711,0,0,0,9.622-5.873,5.77,5.77,0,0,0-3.4-.186A8.772,8.772,0,0,0,282.229,439.914Zm33.192-86.029a5.989,5.989,0,0,0-5.281-1.07,9.663,9.663,0,0,0-5.777,4.212,5.6,5.6,0,0,0-5.3-1.273,9.232,9.232,0,0,0-5.77,4.475,5.2,5.2,0,0,0-5.308-1.535,8.772,8.772,0,0,0-5.756,4.823,4.812,4.812,0,0,0-5.322-1.884,8.286,8.286,0,0,0-5.742,5.361,4.432,4.432,0,0,0-5.335-2.421,7.643,7.643,0,0,0-5.73,7.052,4.412,4.412,0,0,0,5.73,4.407,7.763,7.763,0,0,0,5.335-4.884,4.717,4.717,0,0,0,5.742,2.709,8.239,8.239,0,0,0,5.322-4.341,5.088,5.088,0,0,0,5.756,2.165,8.68,8.68,0,0,0,5.308-3.986,5.467,5.467,0,0,0,5.77,1.811,9.124,9.124,0,0,0,5.3-3.72,5.847,5.847,0,0,0,5.777,1.544,9.537,9.537,0,0,0,5.281-3.508,6.241,6.241,0,0,0,5.8,1.333V349.876A10.1,10.1,0,0,0,315.421,353.885ZM254.752,230a6.541,6.541,0,0,0-2.292,1.051V240.7a4.928,4.928,0,0,0,2.292-.007,7.136,7.136,0,0,0,5.348-6.583A4.118,4.118,0,0,0,254.752,230Zm0,91.677a6.524,6.524,0,0,0-2.292,1.051v9.652a4.93,4.93,0,0,0,2.292-.008,7.134,7.134,0,0,0,5.348-6.582A4.118,4.118,0,0,0,254.752,321.674Zm0-76.4a6.54,6.54,0,0,0-2.292,1.05v9.653a4.93,4.93,0,0,0,2.292-.008,7.136,7.136,0,0,0,5.348-6.582A4.118,4.118,0,0,0,254.752,245.277Zm60.669-28.907a5.989,5.989,0,0,0-5.281-1.07,9.663,9.663,0,0,0-5.777,4.212,5.6,5.6,0,0,0-5.3-1.273,9.229,9.229,0,0,0-5.77,4.475,5.2,5.2,0,0,0-5.308-1.536A8.776,8.776,0,0,0,282.229,226a4.812,4.812,0,0,0-5.322-1.884,8.287,8.287,0,0,0-5.742,5.36,4.431,4.431,0,0,0-5.335-2.42,7.643,7.643,0,0,0-5.73,7.052,4.411,4.411,0,0,0,5.729,4.407,7.764,7.764,0,0,0,5.336-4.884,4.718,4.718,0,0,0,5.742,2.709A8.241,8.241,0,0,0,282.229,232a5.089,5.089,0,0,0,5.756,2.165,8.683,8.683,0,0,0,5.308-3.986,5.47,5.47,0,0,0,5.77,1.811,9.124,9.124,0,0,0,5.3-3.72,5.847,5.847,0,0,0,5.777,1.544,9.534,9.534,0,0,0,5.281-3.509,6.239,6.239,0,0,0,5.8,1.334V212.36A10.11,10.11,0,0,0,315.421,216.37Zm-62.961-6.229a4.929,4.929,0,0,0,2.292-.007,7.136,7.136,0,0,0,5.348-6.583l-7.64,1.764Zm7.64-6.59a4.412,4.412,0,0,0,5.73,4.407,7.766,7.766,0,0,0,5.335-4.884,4.717,4.717,0,0,0,5.742,2.709,8.241,8.241,0,0,0,5.322-4.341,5.088,5.088,0,0,0,5.756,2.165,8.683,8.683,0,0,0,5.308-3.986,5.467,5.467,0,0,0,5.77,1.811,9.124,9.124,0,0,0,5.3-3.72,5.847,5.847,0,0,0,5.777,1.544,9.534,9.534,0,0,0,5.281-3.509,6.241,6.241,0,0,0,5.8,1.334v-7.64Zm-5.348,11.167a6.539,6.539,0,0,0-2.292,1.05v9.653a4.929,4.929,0,0,0,2.292-.008,7.136,7.136,0,0,0,5.348-6.582A4.118,4.118,0,0,0,254.752,214.718Zm60.669,32.211a5.989,5.989,0,0,0-5.281-1.07,9.663,9.663,0,0,0-5.777,4.212,5.6,5.6,0,0,0-5.3-1.273,9.228,9.228,0,0,0-5.77,4.475,5.2,5.2,0,0,0-5.308-1.535,8.772,8.772,0,0,0-5.756,4.823,4.812,4.812,0,0,0-5.322-1.884,8.286,8.286,0,0,0-5.742,5.361,4.432,4.432,0,0,0-5.335-2.422,7.645,7.645,0,0,0-5.73,7.053,4.412,4.412,0,0,0,5.73,4.407,7.765,7.765,0,0,0,5.335-4.884,4.719,4.719,0,0,0,5.742,2.709,8.242,8.242,0,0,0,5.322-4.341,5.088,5.088,0,0,0,5.756,2.165,8.683,8.683,0,0,0,5.308-3.986,5.469,5.469,0,0,0,5.77,1.811,9.124,9.124,0,0,0,5.3-3.72,5.847,5.847,0,0,0,5.777,1.544,9.534,9.534,0,0,0,5.281-3.509,6.241,6.241,0,0,0,5.8,1.334v-15.28A10.11,10.11,0,0,0,315.421,246.929Zm0-45.838a5.989,5.989,0,0,0-5.281-1.071,9.667,9.667,0,0,0-5.777,4.212,5.6,5.6,0,0,0-5.3-1.272,9.226,9.226,0,0,0-5.769,4.475,5.2,5.2,0,0,0-5.308-1.536,8.775,8.775,0,0,0-5.756,4.823,4.812,4.812,0,0,0-5.322-1.883,8.283,8.283,0,0,0-5.742,5.36,4.432,4.432,0,0,0-5.335-2.421,7.645,7.645,0,0,0-5.73,7.053,4.413,4.413,0,0,0,5.73,4.407,7.766,7.766,0,0,0,5.335-4.885,4.717,4.717,0,0,0,5.742,2.709,8.24,8.24,0,0,0,5.322-4.34,5.088,5.088,0,0,0,5.756,2.165,8.681,8.681,0,0,0,5.308-3.987,5.467,5.467,0,0,0,5.77,1.811,9.122,9.122,0,0,0,5.3-3.719,5.849,5.849,0,0,0,5.777,1.544,9.535,9.535,0,0,0,5.281-3.509,6.238,6.238,0,0,0,5.8,1.333V197.081A10.1,10.1,0,0,0,315.421,201.091Zm0,30.559a5.989,5.989,0,0,0-5.281-1.071,9.667,9.667,0,0,0-5.777,4.212,5.6,5.6,0,0,0-5.3-1.272,9.228,9.228,0,0,0-5.77,4.475,5.2,5.2,0,0,0-5.308-1.536,8.772,8.772,0,0,0-5.756,4.823,4.812,4.812,0,0,0-5.322-1.883,8.283,8.283,0,0,0-5.742,5.36,4.432,4.432,0,0,0-5.335-2.421,7.644,7.644,0,0,0-5.73,7.053,4.413,4.413,0,0,0,5.73,4.407,7.766,7.766,0,0,0,5.335-4.885,4.717,4.717,0,0,0,5.742,2.709,8.24,8.24,0,0,0,5.322-4.34,5.088,5.088,0,0,0,5.756,2.165,8.681,8.681,0,0,0,5.308-3.987,5.467,5.467,0,0,0,5.77,1.811,9.122,9.122,0,0,0,5.3-3.719,5.849,5.849,0,0,0,5.777,1.544,9.539,9.539,0,0,0,5.281-3.509,6.238,6.238,0,0,0,5.8,1.333V227.64A10.105,10.105,0,0,0,315.421,231.65Zm-60.669,74.744a6.568,6.568,0,0,0-2.292,1.051V317.1a4.929,4.929,0,0,0,2.292-.008,7.136,7.136,0,0,0,5.348-6.582A4.119,4.119,0,0,0,254.752,306.394Zm60.669-13.626a5.989,5.989,0,0,0-5.281-1.071,9.663,9.663,0,0,0-5.777,4.212,5.6,5.6,0,0,0-5.3-1.272,9.228,9.228,0,0,0-5.77,4.475,5.2,5.2,0,0,0-5.308-1.536,8.772,8.772,0,0,0-5.756,4.823,4.812,4.812,0,0,0-5.322-1.883,8.283,8.283,0,0,0-5.742,5.36,4.433,4.433,0,0,0-5.335-2.421,7.644,7.644,0,0,0-5.73,7.053,4.412,4.412,0,0,0,5.73,4.406,7.762,7.762,0,0,0,5.335-4.884,4.717,4.717,0,0,0,5.742,2.709,8.239,8.239,0,0,0,5.322-4.341,5.087,5.087,0,0,0,5.756,2.166,8.681,8.681,0,0,0,5.308-3.987,5.467,5.467,0,0,0,5.77,1.811,9.122,9.122,0,0,0,5.3-3.719,5.849,5.849,0,0,0,5.777,1.543,9.537,9.537,0,0,0,5.281-3.508,6.241,6.241,0,0,0,5.8,1.333V288.758A10.1,10.1,0,0,0,315.421,292.768Zm0,15.279a5.989,5.989,0,0,0-5.281-1.07,9.665,9.665,0,0,0-5.777,4.211,5.6,5.6,0,0,0-5.3-1.272,9.229,9.229,0,0,0-5.77,4.475,5.2,5.2,0,0,0-5.308-1.536,8.773,8.773,0,0,0-5.756,4.824,4.812,4.812,0,0,0-5.322-1.884,8.287,8.287,0,0,0-5.742,5.36,4.433,4.433,0,0,0-5.335-2.421,7.645,7.645,0,0,0-5.73,7.053,4.412,4.412,0,0,0,5.73,4.407,7.765,7.765,0,0,0,5.335-4.884,4.719,4.719,0,0,0,5.742,2.709,8.242,8.242,0,0,0,5.322-4.341,5.088,5.088,0,0,0,5.756,2.165,8.683,8.683,0,0,0,5.308-3.986,5.467,5.467,0,0,0,5.77,1.81,9.122,9.122,0,0,0,5.3-3.719,5.847,5.847,0,0,0,5.777,1.544,9.535,9.535,0,0,0,5.281-3.509,6.241,6.241,0,0,0,5.8,1.334v-15.28A10.105,10.105,0,0,0,315.421,308.047Zm-60.669-16.932a6.542,6.542,0,0,0-2.292,1.051v9.652a4.928,4.928,0,0,0,2.292-.007,7.136,7.136,0,0,0,5.348-6.583A4.118,4.118,0,0,0,254.752,291.115Zm60.669-13.627a5.989,5.989,0,0,0-5.281-1.07,9.665,9.665,0,0,0-5.777,4.211,5.6,5.6,0,0,0-5.3-1.272,9.231,9.231,0,0,0-5.77,4.475,5.2,5.2,0,0,0-5.308-1.536,8.771,8.771,0,0,0-5.756,4.824,4.812,4.812,0,0,0-5.322-1.884,8.287,8.287,0,0,0-5.742,5.36,4.431,4.431,0,0,0-5.335-2.42,7.643,7.643,0,0,0-5.73,7.052,4.411,4.411,0,0,0,5.729,4.407,7.766,7.766,0,0,0,5.336-4.884,4.717,4.717,0,0,0,5.742,2.708,8.237,8.237,0,0,0,5.322-4.34,5.089,5.089,0,0,0,5.756,2.165,8.683,8.683,0,0,0,5.308-3.986,5.469,5.469,0,0,0,5.77,1.811,9.127,9.127,0,0,0,5.3-3.72,5.847,5.847,0,0,0,5.777,1.544,9.539,9.539,0,0,0,5.281-3.509,6.241,6.241,0,0,0,5.8,1.334v-15.28A10.105,10.105,0,0,0,315.421,277.488Zm0-15.279a5.989,5.989,0,0,0-5.281-1.071,9.667,9.667,0,0,0-5.777,4.212,5.6,5.6,0,0,0-5.3-1.272,9.226,9.226,0,0,0-5.769,4.475,5.2,5.2,0,0,0-5.308-1.536,8.772,8.772,0,0,0-5.756,4.823,4.812,4.812,0,0,0-5.322-1.883,8.283,8.283,0,0,0-5.742,5.36,4.432,4.432,0,0,0-5.335-2.421,7.644,7.644,0,0,0-5.73,7.053,4.412,4.412,0,0,0,5.73,4.406,7.763,7.763,0,0,0,5.335-4.884,4.717,4.717,0,0,0,5.742,2.709,8.24,8.24,0,0,0,5.322-4.34,5.091,5.091,0,0,0,5.756,2.165,8.681,8.681,0,0,0,5.308-3.987,5.467,5.467,0,0,0,5.77,1.811,9.122,9.122,0,0,0,5.3-3.719,5.849,5.849,0,0,0,5.777,1.544,9.535,9.535,0,0,0,5.281-3.509,6.241,6.241,0,0,0,5.8,1.333V258.2A10.1,10.1,0,0,0,315.421,262.209Zm-60.669,13.626a6.559,6.559,0,0,0-2.292,1.051v9.653a4.929,4.929,0,0,0,2.292-.008,7.136,7.136,0,0,0,5.348-6.582A4.119,4.119,0,0,0,254.752,275.835Zm0-15.279a6.55,6.55,0,0,0-2.292,1.051v9.652a4.929,4.929,0,0,0,2.292-.007,7.135,7.135,0,0,0,5.348-6.583A4.118,4.118,0,0,0,254.752,260.556Zm-55.388-31.141a4.587,4.587,0,0,0-3.438,4.231,2.648,2.648,0,0,0,3.438,2.645,4.589,4.589,0,0,0,3.438-4.232A2.647,2.647,0,0,0,199.364,229.415Zm0,15.279a4.587,4.587,0,0,0-3.438,4.232,2.648,2.648,0,0,0,3.438,2.644,4.586,4.586,0,0,0,3.438-4.232A2.648,2.648,0,0,0,199.364,244.694Zm0-23.683a4.586,4.586,0,0,0,3.438-4.232l-6.876,1.588A2.647,2.647,0,0,0,199.364,221.011ZM210.441,394.55a5.1,5.1,0,0,0-3.819,4.7,2.941,2.941,0,0,0,3.819,2.938,5.1,5.1,0,0,0,3.82-4.7A2.941,2.941,0,0,0,210.441,394.55Zm-11.077-119.3a4.587,4.587,0,0,0-3.438,4.232,2.647,2.647,0,0,0,3.438,2.644A4.586,4.586,0,0,0,202.8,277.9,2.648,2.648,0,0,0,199.364,275.253Zm0-15.279a4.586,4.586,0,0,0-3.438,4.231,2.648,2.648,0,0,0,3.438,2.645,4.587,4.587,0,0,0,3.438-4.232A2.647,2.647,0,0,0,199.364,259.974Zm11.077,165.135a5.1,5.1,0,0,0-3.819,4.7,2.941,2.941,0,0,0,3.82,2.938,5.1,5.1,0,0,0,3.82-4.7A2.942,2.942,0,0,0,210.441,425.109Zm0,30.559a5.1,5.1,0,0,0-3.82,4.7l7.639-1.764A2.941,2.941,0,0,0,210.442,455.668Zm0-45.839a5.1,5.1,0,0,0-3.82,4.7,2.941,2.941,0,0,0,3.819,2.938,5.1,5.1,0,0,0,3.82-4.7A2.941,2.941,0,0,0,210.442,409.829Zm0,30.559a5.1,5.1,0,0,0-3.819,4.7,2.941,2.941,0,0,0,3.819,2.938,5.1,5.1,0,0,0,3.82-4.7A2.941,2.941,0,0,0,210.441,440.388Zm-11.077-12.34a4.586,4.586,0,0,0-3.438,4.231,2.648,2.648,0,0,0,3.438,2.645,4.589,4.589,0,0,0,3.438-4.232A2.648,2.648,0,0,0,199.364,428.048Zm0-137.515a4.586,4.586,0,0,0-3.438,4.231,2.647,2.647,0,0,0,3.438,2.644,4.586,4.586,0,0,0,3.438-4.231A2.647,2.647,0,0,0,199.364,290.533Zm0,106.956a4.586,4.586,0,0,0-3.438,4.232,2.648,2.648,0,0,0,3.438,2.644,4.587,4.587,0,0,0,3.438-4.232A2.647,2.647,0,0,0,199.364,397.489Zm0-15.28a4.587,4.587,0,0,0-3.438,4.232,2.647,2.647,0,0,0,3.438,2.644,4.587,4.587,0,0,0,3.438-4.231A2.648,2.648,0,0,0,199.364,382.209Zm0,30.559A4.587,4.587,0,0,0,195.926,417a2.647,2.647,0,0,0,3.438,2.644,4.586,4.586,0,0,0,3.438-4.231A2.648,2.648,0,0,0,199.364,412.768Zm0-45.838a4.586,4.586,0,0,0-3.438,4.232,2.648,2.648,0,0,0,3.438,2.644,4.588,4.588,0,0,0,3.438-4.232A2.648,2.648,0,0,0,199.364,366.93Zm0-15.279a4.585,4.585,0,0,0-3.438,4.231,2.647,2.647,0,0,0,3.438,2.644A4.586,4.586,0,0,0,202.8,354.3,2.647,2.647,0,0,0,199.364,351.651Zm0-45.839a4.587,4.587,0,0,0-3.438,4.232,2.648,2.648,0,0,0,3.438,2.644,4.586,4.586,0,0,0,3.438-4.232A2.648,2.648,0,0,0,199.364,305.812Zm0,15.28a4.586,4.586,0,0,0-3.438,4.231,2.647,2.647,0,0,0,3.438,2.644,4.587,4.587,0,0,0,3.438-4.231A2.647,2.647,0,0,0,199.364,321.092Zm0,15.279a4.587,4.587,0,0,0-3.438,4.232,2.648,2.648,0,0,0,3.438,2.644,4.586,4.586,0,0,0,3.438-4.232A2.648,2.648,0,0,0,199.364,336.371Zm11.077-2.939a5.1,5.1,0,0,0-3.819,4.7,2.94,2.94,0,0,0,3.819,2.937,5.1,5.1,0,0,0,3.82-4.7A2.941,2.941,0,0,0,210.441,333.432Zm11.078,104.016a5.607,5.607,0,0,0-4.2,5.173,3.236,3.236,0,0,0,4.2,3.231,5.606,5.606,0,0,0,4.2-5.172A3.236,3.236,0,0,0,221.519,437.448Zm0,15.28a5.606,5.606,0,0,0-4.2,5.172l8.4-1.94A3.235,3.235,0,0,0,221.519,452.728ZM210.442,218.836a5.1,5.1,0,0,0,3.819-4.7l-7.639,1.763A2.942,2.942,0,0,0,210.442,218.836Zm0,7.639a5.1,5.1,0,0,0-3.819,4.7,2.941,2.941,0,0,0,3.819,2.938,5.1,5.1,0,0,0,3.82-4.7A2.942,2.942,0,0,0,210.441,226.475ZM232.6,449.789a6.114,6.114,0,0,0-4.584,5.642l9.168-2.117A3.53,3.53,0,0,0,232.6,449.789Zm0-15.28a6.115,6.115,0,0,0-4.584,5.642,3.53,3.53,0,0,0,4.584,3.526,6.117,6.117,0,0,0,4.584-5.642A3.53,3.53,0,0,0,232.6,434.509ZM210.441,241.755a5.1,5.1,0,0,0-3.819,4.7,2.941,2.941,0,0,0,3.819,2.938,5.1,5.1,0,0,0,3.82-4.7A2.941,2.941,0,0,0,210.441,241.755ZM222.831,406.8a4.07,4.07,0,0,0-1.312.092,5.606,5.606,0,0,0-4.2,5.172,3.235,3.235,0,0,0,4.2,3.231,5.6,5.6,0,0,0,4.2-5.172,3.822,3.822,0,0,0-.158-1.093A5.494,5.494,0,0,1,222.831,406.8Zm-1.312,15.371a5.6,5.6,0,0,0-4.2,5.172,3.235,3.235,0,0,0,4.2,3.232,5.606,5.606,0,0,0,4.2-5.172A3.235,3.235,0,0,0,221.519,422.169ZM210.441,257.034a5.1,5.1,0,0,0-3.819,4.7,2.941,2.941,0,0,0,3.819,2.938,5.1,5.1,0,0,0,3.82-4.7A2.942,2.942,0,0,0,210.441,257.034Zm0,61.118a5.1,5.1,0,0,0-3.819,4.7,2.941,2.941,0,0,0,3.82,2.938,5.1,5.1,0,0,0,3.819-4.7A2.942,2.942,0,0,0,210.441,318.152Zm0,30.559a5.1,5.1,0,0,0-3.82,4.7,2.941,2.941,0,0,0,3.819,2.938,5.1,5.1,0,0,0,3.82-4.7A2.941,2.941,0,0,0,210.442,348.711ZM232.6,419.23a6.114,6.114,0,0,0-4.584,5.642A3.529,3.529,0,0,0,232.6,428.4a6.116,6.116,0,0,0,4.584-5.642A3.529,3.529,0,0,0,232.6,419.23Zm-22.156-39.96a5.1,5.1,0,0,0-3.819,4.7,2.942,2.942,0,0,0,3.82,2.938,5.1,5.1,0,0,0,3.819-4.7A2.941,2.941,0,0,0,210.441,379.27Zm0-15.279a5.1,5.1,0,0,0-3.82,4.7,2.941,2.941,0,0,0,3.819,2.938,5.1,5.1,0,0,0,3.821-4.7A2.942,2.942,0,0,0,210.442,363.991Zm0-91.677a5.1,5.1,0,0,0-3.819,4.7,2.942,2.942,0,0,0,3.82,2.939,5.1,5.1,0,0,0,3.819-4.7A2.941,2.941,0,0,0,210.441,272.314Zm0,30.559a5.1,5.1,0,0,0-3.82,4.7,2.941,2.941,0,0,0,3.819,2.939,5.1,5.1,0,0,0,3.82-4.7A2.941,2.941,0,0,0,210.442,302.873Zm0-15.28a5.1,5.1,0,0,0-3.819,4.7,2.941,2.941,0,0,0,3.819,2.938,5.1,5.1,0,0,0,3.82-4.7A2.941,2.941,0,0,0,210.441,287.593Z" fill="#166cdb"/>
    </g>
  </g>
</svg>
